<?xml version='1.0' encoding='utf-8'?>
<svg xmlns:xlink="http://www.w3.org/1999/xlink" class="pygal-chart" id="chart-c4b7e883-b9ba-41f8-a454-a38b9a3da954" viewBox="0 0 1100 600" xmlns="http://www.w3.org/2000/svg"><!--Generated with pygal 2.4.0 (etree) ©Kozea 2012-2016 on 2019-07-27--><!--http://pygal.org--><!--http://github.com/Kozea/pygal--><defs><style type="text/css">#chart-c4b7e883-b9ba-41f8-a454-a38b9a3da954{-webkit-user-select:none;-webkit-font-smoothing:antialiased;font-family:Consolas,"Liberation Mono",Menlo,Courier,monospace}#chart-c4b7e883-b9ba-41f8-a454-a38b9a3da954 .title{font-family:Consolas,"Liberation Mono",Menlo,Courier,monospace;font-size:16px}#chart-c4b7e883-b9ba-41f8-a454-a38b9a3da954 .legends .legend text{font-family:Consolas,"Liberation Mono",Menlo,Courier,monospace;font-size:14px}#chart-c4b7e883-b9ba-41f8-a454-a38b9a3da954 .axis text{font-family:Consolas,"Liberation Mono",Menlo,Courier,monospace;font-size:10px}#chart-c4b7e883-b9ba-41f8-a454-a38b9a3da954 .axis text.major{font-family:Consolas,"Liberation Mono",Menlo,Courier,monospace;font-size:10px}#chart-c4b7e883-b9ba-41f8-a454-a38b9a3da954 .text-overlay text.value{font-family:Consolas,"Liberation Mono",Menlo,Courier,monospace;font-size:16px}#chart-c4b7e883-b9ba-41f8-a454-a38b9a3da954 .text-overlay text.label{font-family:Consolas,"Liberation Mono",Menlo,Courier,monospace;font-size:10px}#chart-c4b7e883-b9ba-41f8-a454-a38b9a3da954 .tooltip{font-family:Consolas,"Liberation Mono",Menlo,Courier,monospace;font-size:14px}#chart-c4b7e883-b9ba-41f8-a454-a38b9a3da954 text.no_data{font-family:Consolas,"Liberation Mono",Menlo,Courier,monospace;font-size:64px}
#chart-c4b7e883-b9ba-41f8-a454-a38b9a3da954{background-color:rgba(249,249,249,1)}#chart-c4b7e883-b9ba-41f8-a454-a38b9a3da954 path,#chart-c4b7e883-b9ba-41f8-a454-a38b9a3da954 line,#chart-c4b7e883-b9ba-41f8-a454-a38b9a3da954 rect,#chart-c4b7e883-b9ba-41f8-a454-a38b9a3da954 circle{-webkit-transition:150ms;-moz-transition:150ms;transition:150ms}#chart-c4b7e883-b9ba-41f8-a454-a38b9a3da954 .graph &gt; .background{fill:rgba(249,249,249,1)}#chart-c4b7e883-b9ba-41f8-a454-a38b9a3da954 .plot &gt; .background{fill:rgba(255,255,255,1)}#chart-c4b7e883-b9ba-41f8-a454-a38b9a3da954 .graph{fill:rgba(0,0,0,.87)}#chart-c4b7e883-b9ba-41f8-a454-a38b9a3da954 text.no_data{fill:rgba(0,0,0,1)}#chart-c4b7e883-b9ba-41f8-a454-a38b9a3da954 .title{fill:rgba(0,0,0,1)}#chart-c4b7e883-b9ba-41f8-a454-a38b9a3da954 .legends .legend text{fill:rgba(0,0,0,.87)}#chart-c4b7e883-b9ba-41f8-a454-a38b9a3da954 .legends .legend:hover text{fill:rgba(0,0,0,1)}#chart-c4b7e883-b9ba-41f8-a454-a38b9a3da954 .axis .line{stroke:rgba(0,0,0,1)}#chart-c4b7e883-b9ba-41f8-a454-a38b9a3da954 .axis .guide.line{stroke:rgba(0,0,0,.54)}#chart-c4b7e883-b9ba-41f8-a454-a38b9a3da954 .axis .major.line{stroke:rgba(0,0,0,.87)}#chart-c4b7e883-b9ba-41f8-a454-a38b9a3da954 .axis text.major{fill:rgba(0,0,0,1)}#chart-c4b7e883-b9ba-41f8-a454-a38b9a3da954 .axis.y .guides:hover .guide.line,#chart-c4b7e883-b9ba-41f8-a454-a38b9a3da954 .line-graph .axis.x .guides:hover .guide.line,#chart-c4b7e883-b9ba-41f8-a454-a38b9a3da954 .stackedline-graph .axis.x .guides:hover .guide.line,#chart-c4b7e883-b9ba-41f8-a454-a38b9a3da954 .xy-graph .axis.x .guides:hover .guide.line{stroke:rgba(0,0,0,1)}#chart-c4b7e883-b9ba-41f8-a454-a38b9a3da954 .axis .guides:hover text{fill:rgba(0,0,0,1)}#chart-c4b7e883-b9ba-41f8-a454-a38b9a3da954 .reactive{fill-opacity:.7;stroke-opacity:.8}#chart-c4b7e883-b9ba-41f8-a454-a38b9a3da954 .ci{stroke:rgba(0,0,0,.87)}#chart-c4b7e883-b9ba-41f8-a454-a38b9a3da954 .reactive.active,#chart-c4b7e883-b9ba-41f8-a454-a38b9a3da954 .active .reactive{fill-opacity:.8;stroke-opacity:.9;stroke-width:4}#chart-c4b7e883-b9ba-41f8-a454-a38b9a3da954 .ci .reactive.active{stroke-width:1.5}#chart-c4b7e883-b9ba-41f8-a454-a38b9a3da954 .series text{fill:rgba(0,0,0,1)}#chart-c4b7e883-b9ba-41f8-a454-a38b9a3da954 .tooltip rect{fill:rgba(255,255,255,1);stroke:rgba(0,0,0,1);-webkit-transition:opacity 150ms;-moz-transition:opacity 150ms;transition:opacity 150ms}#chart-c4b7e883-b9ba-41f8-a454-a38b9a3da954 .tooltip .label{fill:rgba(0,0,0,.87)}#chart-c4b7e883-b9ba-41f8-a454-a38b9a3da954 .tooltip .label{fill:rgba(0,0,0,.87)}#chart-c4b7e883-b9ba-41f8-a454-a38b9a3da954 .tooltip .legend{font-size:.8em;fill:rgba(0,0,0,.54)}#chart-c4b7e883-b9ba-41f8-a454-a38b9a3da954 .tooltip .x_label{font-size:.6em;fill:rgba(0,0,0,1)}#chart-c4b7e883-b9ba-41f8-a454-a38b9a3da954 .tooltip .xlink{font-size:.5em;text-decoration:underline}#chart-c4b7e883-b9ba-41f8-a454-a38b9a3da954 .tooltip .value{font-size:1.5em}#chart-c4b7e883-b9ba-41f8-a454-a38b9a3da954 .bound{font-size:.5em}#chart-c4b7e883-b9ba-41f8-a454-a38b9a3da954 .max-value{font-size:.75em;fill:rgba(0,0,0,.54)}#chart-c4b7e883-b9ba-41f8-a454-a38b9a3da954 .map-element{fill:rgba(255,255,255,1);stroke:rgba(0,0,0,.54) !important}#chart-c4b7e883-b9ba-41f8-a454-a38b9a3da954 .map-element .reactive{fill-opacity:inherit;stroke-opacity:inherit}#chart-c4b7e883-b9ba-41f8-a454-a38b9a3da954 .color-0,#chart-c4b7e883-b9ba-41f8-a454-a38b9a3da954 .color-0 a:visited{stroke:#F44336;fill:#F44336}#chart-c4b7e883-b9ba-41f8-a454-a38b9a3da954 .text-overlay .color-0 text{fill:black}
#chart-c4b7e883-b9ba-41f8-a454-a38b9a3da954 text.no_data{text-anchor:middle}#chart-c4b7e883-b9ba-41f8-a454-a38b9a3da954 .guide.line{fill:none}#chart-c4b7e883-b9ba-41f8-a454-a38b9a3da954 .centered{text-anchor:middle}#chart-c4b7e883-b9ba-41f8-a454-a38b9a3da954 .title{text-anchor:middle}#chart-c4b7e883-b9ba-41f8-a454-a38b9a3da954 .legends .legend text{fill-opacity:1}#chart-c4b7e883-b9ba-41f8-a454-a38b9a3da954 .axis.x text{text-anchor:middle}#chart-c4b7e883-b9ba-41f8-a454-a38b9a3da954 .axis.x:not(.web) text[transform]{text-anchor:start}#chart-c4b7e883-b9ba-41f8-a454-a38b9a3da954 .axis.x:not(.web) text[transform].backwards{text-anchor:end}#chart-c4b7e883-b9ba-41f8-a454-a38b9a3da954 .axis.y text{text-anchor:end}#chart-c4b7e883-b9ba-41f8-a454-a38b9a3da954 .axis.y text[transform].backwards{text-anchor:start}#chart-c4b7e883-b9ba-41f8-a454-a38b9a3da954 .axis.y2 text{text-anchor:start}#chart-c4b7e883-b9ba-41f8-a454-a38b9a3da954 .axis.y2 text[transform].backwards{text-anchor:end}#chart-c4b7e883-b9ba-41f8-a454-a38b9a3da954 .axis .guide.line{stroke-dasharray:4,4}#chart-c4b7e883-b9ba-41f8-a454-a38b9a3da954 .axis .major.guide.line{stroke-dasharray:6,6}#chart-c4b7e883-b9ba-41f8-a454-a38b9a3da954 .horizontal .axis.y .guide.line,#chart-c4b7e883-b9ba-41f8-a454-a38b9a3da954 .horizontal .axis.y2 .guide.line,#chart-c4b7e883-b9ba-41f8-a454-a38b9a3da954 .vertical .axis.x .guide.line{opacity:0}#chart-c4b7e883-b9ba-41f8-a454-a38b9a3da954 .horizontal .axis.always_show .guide.line,#chart-c4b7e883-b9ba-41f8-a454-a38b9a3da954 .vertical .axis.always_show .guide.line{opacity:1 !important}#chart-c4b7e883-b9ba-41f8-a454-a38b9a3da954 .axis.y .guides:hover .guide.line,#chart-c4b7e883-b9ba-41f8-a454-a38b9a3da954 .axis.y2 .guides:hover .guide.line,#chart-c4b7e883-b9ba-41f8-a454-a38b9a3da954 .axis.x .guides:hover .guide.line{opacity:1}#chart-c4b7e883-b9ba-41f8-a454-a38b9a3da954 .axis .guides:hover text{opacity:1}#chart-c4b7e883-b9ba-41f8-a454-a38b9a3da954 .nofill{fill:none}#chart-c4b7e883-b9ba-41f8-a454-a38b9a3da954 .subtle-fill{fill-opacity:.2}#chart-c4b7e883-b9ba-41f8-a454-a38b9a3da954 .dot{stroke-width:1px;fill-opacity:1}#chart-c4b7e883-b9ba-41f8-a454-a38b9a3da954 .dot.active{stroke-width:5px}#chart-c4b7e883-b9ba-41f8-a454-a38b9a3da954 .dot.negative{fill:transparent}#chart-c4b7e883-b9ba-41f8-a454-a38b9a3da954 text,#chart-c4b7e883-b9ba-41f8-a454-a38b9a3da954 tspan{stroke:none !important}#chart-c4b7e883-b9ba-41f8-a454-a38b9a3da954 .series text.active{opacity:1}#chart-c4b7e883-b9ba-41f8-a454-a38b9a3da954 .tooltip rect{fill-opacity:.95;stroke-width:.5}#chart-c4b7e883-b9ba-41f8-a454-a38b9a3da954 .tooltip text{fill-opacity:1}#chart-c4b7e883-b9ba-41f8-a454-a38b9a3da954 .showable{visibility:hidden}#chart-c4b7e883-b9ba-41f8-a454-a38b9a3da954 .showable.shown{visibility:visible}#chart-c4b7e883-b9ba-41f8-a454-a38b9a3da954 .gauge-background{fill:rgba(229,229,229,1);stroke:none}#chart-c4b7e883-b9ba-41f8-a454-a38b9a3da954 .bg-lines{stroke:rgba(249,249,249,1);stroke-width:2px}</style><script type="text/javascript">window.pygal = window.pygal || {};window.pygal.config = window.pygal.config || {};window.pygal.config['c4b7e883-b9ba-41f8-a454-a38b9a3da954'] = {"allow_interruptions": false, "box_mode": "extremes", "classes": ["pygal-chart"], "css": ["file://style.css", "file://graph.css"], "defs": [], "disable_xml_declaration": false, "dots_size": 2.5, "dynamic_print_values": false, "explicit_size": false, "fill": true, "force_uri_protocol": "https", "formatter": null, "half_pie": false, "height": 600, "include_x_axis": false, "inner_radius": 0, "interpolate": "cubic", "interpolation_parameters": {}, "interpolation_precision": 250, "inverse_y_axis": false, "js": ["//kozea.github.io/pygal.js/2.0.x/pygal-tooltips.min.js"], "legend_at_bottom": false, "legend_at_bottom_columns": null, "legend_box_size": 12, "logarithmic": false, "margin": 20, "margin_bottom": null, "margin_left": null, "margin_right": null, "margin_top": null, "max_scale": 16, "min_scale": 4, "missing_value_fill_truncation": "x", "no_data_text": "No data", "no_prefix": false, "order_min": null, "pretty_print": false, "print_labels": false, "print_values": false, "print_values_position": "center", "print_zeroes": true, "range": null, "rounded_bars": null, "secondary_range": null, "show_dots": true, "show_legend": true, "show_minor_x_labels": true, "show_minor_y_labels": true, "show_only_major_dots": false, "show_x_guides": false, "show_x_labels": true, "show_y_guides": true, "show_y_labels": true, "spacing": 10, "stack_from_top": false, "strict": false, "stroke": true, "stroke_style": null, "style": {"background": "rgba(249, 249, 249, 1)", "ci_colors": [], "colors": ["#F44336", "#3F51B5", "#009688", "#FFC107", "#FF5722", "#9C27B0", "#03A9F4", "#8BC34A", "#FF9800", "#E91E63", "#2196F3", "#4CAF50", "#FFEB3B", "#673AB7", "#00BCD4", "#CDDC39", "#9E9E9E", "#607D8B"], "font_family": "Consolas, \"Liberation Mono\", Menlo, Courier, monospace", "foreground": "rgba(0, 0, 0, .87)", "foreground_strong": "rgba(0, 0, 0, 1)", "foreground_subtle": "rgba(0, 0, 0, .54)", "guide_stroke_dasharray": "4,4", "label_font_family": "Consolas, \"Liberation Mono\", Menlo, Courier, monospace", "label_font_size": 10, "legend_font_family": "Consolas, \"Liberation Mono\", Menlo, Courier, monospace", "legend_font_size": 14, "major_guide_stroke_dasharray": "6,6", "major_label_font_family": "Consolas, \"Liberation Mono\", Menlo, Courier, monospace", "major_label_font_size": 10, "no_data_font_family": "Consolas, \"Liberation Mono\", Menlo, Courier, monospace", "no_data_font_size": 64, "opacity": ".7", "opacity_hover": ".8", "plot_background": "rgba(255, 255, 255, 1)", "stroke_opacity": ".8", "stroke_opacity_hover": ".9", "title_font_family": "Consolas, \"Liberation Mono\", Menlo, Courier, monospace", "title_font_size": 16, "tooltip_font_family": "Consolas, \"Liberation Mono\", Menlo, Courier, monospace", "tooltip_font_size": 14, "transition": "150ms", "value_background": "rgba(229, 229, 229, 1)", "value_colors": [], "value_font_family": "Consolas, \"Liberation Mono\", Menlo, Courier, monospace", "value_font_size": 16, "value_label_font_family": "Consolas, \"Liberation Mono\", Menlo, Courier, monospace", "value_label_font_size": 10}, "title": "2018\u5e74\u5404\u6708\u4e0a\u67b6\u989d", "tooltip_border_radius": 0, "tooltip_fancy_mode": true, "truncate_label": null, "truncate_legend": null, "width": 1100, "x_label_rotation": 0, "x_labels": ["2018-01", "2018-02", "2018-03", "2018-04", "2018-05", "2018-06", "2018-07", "2018-08", "2018-09", "2018-10", "2018-11", "2018-12"], "x_labels_major": null, "x_labels_major_count": null, "x_labels_major_every": null, "x_title": null, "xrange": null, "y_label_rotation": 0, "y_labels": null, "y_labels_major": null, "y_labels_major_count": null, "y_labels_major_every": null, "y_title": null, "zero": 0, "legends": ["2018"]}</script><script type="text/javascript" xlink:href="https://kozea.github.io/pygal.js/2.0.x/pygal-tooltips.min.js" /></defs><title>2018年各月上架额</title><g class="graph line-graph vertical"><rect class="background" height="600" width="1100" x="0" y="0" /><g class="plot" transform="translate(103, 46)"><rect class="background" height="514" width="976.4" x="0" y="0" /><g class="axis y always_show"><path class="line" d="M0.000000 514.000000 h976.400000" /><g class="guides"><path class="guide line" d="M0.000000 402.814067 h976.400000" /><text class="" x="-5" y="406.3140674075238">100</text><title>100</title></g><g class="guides"><path class="guide line" d="M0.000000 297.752717 h976.400000" /><text class="" x="-5" y="301.2527165992595">200</text><title>200</title></g><g class="guides"><path class="guide line" d="M0.000000 192.691366 h976.400000" /><text class="" x="-5" y="196.19136579099523">300</text><title>300</title></g><g class="guides"><path class="guide line" d="M0.000000 87.630015 h976.400000" /><text class="" x="-5" y="91.13001498273093">400</text><title>400</title></g></g><g class="axis x"><g class="guides"><path class="line" d="M18.776923 0.000000 v514.000000" /><text class="" x="18.776923076923076" y="529.0">2018-01</text></g><g class="guides"><path class="guide line" d="M104.126573 0.000000 v514.000000" /><text class="" x="104.12657342657343" y="529.0">2018-02</text></g><g class="guides"><path class="guide line" d="M189.476224 0.000000 v514.000000" /><text class="" x="189.47622377622378" y="529.0">2018-03</text></g><g class="guides"><path class="guide line" d="M274.825874 0.000000 v514.000000" /><text class="" x="274.8258741258741" y="529.0">2018-04</text></g><g class="guides"><path class="guide line" d="M360.175524 0.000000 v514.000000" /><text class="" x="360.17552447552447" y="529.0">2018-05</text></g><g class="guides"><path class="guide line" d="M445.525175 0.000000 v514.000000" /><text class="" x="445.5251748251748" y="529.0">2018-06</text></g><g class="guides"><path class="guide line" d="M530.874825 0.000000 v514.000000" /><text class="" x="530.8748251748251" y="529.0">2018-07</text></g><g class="guides"><path class="guide line" d="M616.224476 0.000000 v514.000000" /><text class="" x="616.2244755244756" y="529.0">2018-08</text></g><g class="guides"><path class="guide line" d="M701.574126 0.000000 v514.000000" /><text class="" x="701.5741258741259" y="529.0">2018-09</text></g><g class="guides"><path class="guide line" d="M786.923776 0.000000 v514.000000" /><text class="" x="786.9237762237763" y="529.0">2018-10</text></g><g class="guides"><path class="guide line" d="M872.273427 0.000000 v514.000000" /><text class="" x="872.2734265734266" y="529.0">2018-11</text></g><g class="guides"><path class="guide line" d="M957.623077 0.000000 v514.000000" /><text class="" x="957.6230769230768" y="529.0">2018-12</text></g></g><g class="series serie-0 color-0"><path class="line reactive" d="M18.776923 507.875418 L18.776923 490.014989 19.118322 490.111548 19.459720 490.208103 19.801119 490.304650 20.142517 490.401185 20.483916 490.497704 20.825315 490.594203 21.166713 490.690678 21.508112 490.787125 21.849510 490.883539 22.190909 490.979917 22.532308 491.076255 22.873706 491.172549 23.215105 491.268794 23.556503 491.364987 23.897902 491.461124 24.239301 491.557200 24.580699 491.653212 24.922098 491.749155 25.263497 491.845026 25.604895 491.940821 25.946294 492.036535 26.287692 492.132164 26.629091 492.227705 26.970490 492.323153 27.311888 492.418505 27.653287 492.513756 27.994685 492.608903 28.336084 492.703940 28.677483 492.798865 29.018881 492.893674 29.360280 492.988361 29.701678 493.082924 30.043077 493.177358 30.384476 493.271659 30.725874 493.365824 31.067273 493.459847 31.408671 493.553726 31.750070 493.647455 32.091469 493.741032 32.432867 493.834452 32.774266 493.927711 33.115664 494.020804 33.457063 494.113729 33.798462 494.206480 34.139860 494.299055 34.481259 494.391448 34.822657 494.483656 35.164056 494.575675 35.505455 494.667501 35.846853 494.759129 36.188252 494.850557 36.529650 494.941779 36.871049 495.032791 37.212448 495.123591 37.553846 495.214173 37.895245 495.304533 38.236643 495.394669 38.578042 495.484574 38.919441 495.574247 39.260839 495.663682 39.602238 495.752875 39.943636 495.841823 40.285035 495.930521 40.626434 496.018966 40.967832 496.107153 41.309231 496.195078 41.650629 496.282738 41.992028 496.370128 42.333427 496.457245 42.674825 496.544083 43.016224 496.630640 43.357622 496.716911 43.699021 496.802893 44.040420 496.888580 44.381818 496.973970 44.723217 497.059058 45.064615 497.143839 45.406014 497.228311 45.747413 497.312469 46.088811 497.396309 46.430210 497.479827 46.771608 497.563019 47.113007 497.645881 47.454406 497.728409 47.795804 497.810599 48.137203 497.892446 48.478601 497.973947 48.820000 498.055099 49.161399 498.135896 49.502797 498.216334 49.844196 498.296411 50.185594 498.376121 50.526993 498.455461 50.868392 498.534427 51.209790 498.613014 51.551189 498.691219 51.892587 498.769037 52.233986 498.846465 52.575385 498.923499 52.916783 499.000134 53.258182 499.076366 53.599580 499.152192 53.940979 499.227608 54.282378 499.302609 54.623776 499.377191 54.965175 499.451351 55.306573 499.525084 55.647972 499.598386 55.989371 499.671254 56.330769 499.743682 56.672168 499.815668 57.013566 499.887208 57.354965 499.958296 57.696364 500.028930 58.037762 500.099105 58.379161 500.168817 58.720559 500.238062 59.061958 500.306836 59.403357 500.375135 59.744755 500.442955 60.086154 500.510292 60.427552 500.577142 60.768951 500.643501 61.110350 500.709365 61.451748 500.774730 61.793147 500.839591 62.134545 500.903946 62.475944 500.967789 62.817343 501.031117 63.158741 501.093926 63.500140 501.156212 63.841538 501.217970 64.182937 501.279197 64.524336 501.339889 64.865734 501.400041 65.207133 501.459650 65.548531 501.518712 65.889930 501.577222 66.231329 501.635176 66.572727 501.692572 66.914126 501.749403 67.255524 501.805667 67.596923 501.861360 67.938322 501.916477 68.279720 501.971014 68.621119 502.024968 68.962517 502.078334 69.303916 502.131108 69.645315 502.183287 69.986713 502.234865 70.328112 502.285841 70.669510 502.336208 71.010909 502.385963 71.352308 502.435103 71.693706 502.483623 72.035105 502.531519 72.376503 502.578787 72.717902 502.625423 73.059301 502.671423 73.400699 502.716783 73.742098 502.761499 74.083497 502.805567 74.424895 502.848983 74.766294 502.891743 75.107692 502.933843 75.449091 502.975278 75.790490 503.016046 76.131888 503.056141 76.473287 503.095560 76.814685 503.134299 77.156084 503.172354 77.497483 503.209720 77.838881 503.246394 78.180280 503.282372 78.521678 503.317649 78.863077 503.352222 79.204476 503.386086 79.545874 503.419238 79.887273 503.451674 80.228671 503.483389 80.570070 503.514379 80.911469 503.544641 81.252867 503.574171 81.594266 503.602963 81.935664 503.631016 82.277063 503.658323 82.618462 503.684882 82.959860 503.710688 83.301259 503.735738 83.642657 503.760027 83.984056 503.783551 84.325455 503.806306 84.666853 503.828288 85.008252 503.849494 85.349650 503.869918 85.691049 503.889558 86.032448 503.908409 86.373846 503.926467 86.715245 503.943728 87.056643 503.960188 87.398042 503.975843 87.739441 503.990689 88.080839 504.004721 88.422238 504.017937 88.763636 504.030332 89.105035 504.041901 89.446434 504.052641 89.787832 504.062549 90.129231 504.071618 90.470629 504.079847 90.812028 504.087230 91.153427 504.093764 91.494825 504.099445 91.836224 504.104269 92.177622 504.108231 92.519021 504.111327 92.860420 504.113555 93.201818 504.114908 93.543217 504.115385 93.884615 504.114979 94.226014 504.113689 94.567413 504.111508 94.908811 504.108435 95.250210 504.104463 95.591608 504.099590 95.933007 504.093812 96.274406 504.087123 96.615804 504.079521 96.957203 504.071001 97.298601 504.061560 97.640000 504.051193 97.981399 504.039895 98.322797 504.027665 98.664196 504.014496 99.005594 504.000385 99.346993 503.985329 99.688392 503.969322 100.029790 503.952362 100.371189 503.934443 100.712587 503.915563 101.053986 503.895717 101.395385 503.874900 101.736783 503.853110 102.078182 503.830341 102.419580 503.806590 102.760979 503.781854 103.102378 503.756127 103.443776 503.729405 103.785175 503.701686 104.126573 503.672964 104.467972 503.643238 104.809371 503.612513 105.150769 503.580798 105.492168 503.548099 105.833566 503.514424 106.174965 503.479781 106.516364 503.444177 106.857762 503.407620 107.199161 503.370118 107.540559 503.331679 107.881958 503.292309 108.223357 503.252017 108.564755 503.210810 108.906154 503.168695 109.247552 503.125682 109.588951 503.081776 109.930350 503.036985 110.271748 502.991319 110.613147 502.944782 110.954545 502.897385 111.295944 502.849133 111.637343 502.800035 111.978741 502.750099 112.320140 502.699332 112.661538 502.647741 113.002937 502.595334 113.344336 502.542119 113.685734 502.488104 114.027133 502.433295 114.368531 502.377702 114.709930 502.321330 115.051329 502.264189 115.392727 502.206285 115.734126 502.147626 116.075524 502.088220 116.416923 502.028074 116.758322 501.967197 117.099720 501.905595 117.441119 501.843276 117.782517 501.780248 118.123916 501.716518 118.465315 501.652095 118.806713 501.586986 119.148112 501.521197 119.489510 501.454738 119.830909 501.387615 120.172308 501.319837 120.513706 501.251410 120.855105 501.182343 121.196503 501.112643 121.537902 501.042317 121.879301 500.971374 122.220699 500.899821 122.562098 500.827665 122.903497 500.754914 123.244895 500.681576 123.586294 500.607659 123.927692 500.533170 124.269091 500.458116 124.610490 500.382505 124.951888 500.306345 125.293287 500.229644 125.634685 500.152409 125.976084 500.074648 126.317483 499.996368 126.658881 499.917576 127.000280 499.838282 127.341678 499.758492 127.683077 499.678213 128.024476 499.597454 128.365874 499.516222 128.707273 499.434524 129.048671 499.352369 129.390070 499.269764 129.731469 499.186717 130.072867 499.103234 130.414266 499.019324 130.755664 498.934995 131.097063 498.850254 131.438462 498.765108 131.779860 498.679566 132.121259 498.593634 132.462657 498.507321 132.804056 498.420634 133.145455 498.333581 133.486853 498.246169 133.828252 498.158406 134.169650 498.070299 134.511049 497.981857 134.852448 497.893087 135.193846 497.803996 135.535245 497.714592 135.876643 497.624882 136.218042 497.534875 136.559441 497.444578 136.900839 497.353999 137.242238 497.263144 137.583636 497.172023 137.925035 497.080642 138.266434 496.989008 138.607832 496.897131 138.949231 496.805016 139.290629 496.712673 139.632028 496.620108 139.973427 496.527329 140.314825 496.434344 140.656224 496.341160 140.997622 496.247785 141.339021 496.154227 141.680420 496.060492 142.021818 495.966590 142.363217 495.872527 142.704615 495.778311 143.046014 495.683950 143.387413 495.589451 143.728811 495.494822 144.070210 495.400071 144.411608 495.305205 144.753007 495.210231 145.094406 495.115158 145.435804 495.019993 145.777203 494.924743 146.118601 494.829417 146.460000 494.734021 146.801399 494.638564 147.142797 494.543053 147.484196 494.447496 147.825594 494.351900 148.166993 494.256274 148.508392 494.160623 148.849790 494.064957 149.191189 493.969283 149.532587 493.873608 149.873986 493.777940 150.215385 493.682287 150.556783 493.586656 150.898182 493.491055 151.239580 493.395492 151.580979 493.299973 151.922378 493.204508 152.263776 493.109103 152.605175 493.013766 152.946573 492.918504 153.287972 492.823326 153.629371 492.728238 153.970769 492.633249 154.312168 492.538366 154.653566 492.443597 154.994965 492.348949 155.336364 492.254430 155.677762 492.160048 156.019161 492.065810 156.360559 491.971724 156.701958 491.877797 157.043357 491.784037 157.384755 491.690452 157.726154 491.597049 158.067552 491.503836 158.408951 491.410820 158.750350 491.318010 159.091748 491.225413 159.433147 491.133035 159.774545 491.040886 160.115944 490.948973 160.457343 490.857302 160.798741 490.765883 161.140140 490.674722 161.481538 490.583827 161.822937 490.493206 162.164336 490.402866 162.505734 490.312815 162.847133 490.223061 163.188531 490.133610 163.529930 490.044472 163.871329 489.955653 164.212727 489.867161 164.554126 489.779004 164.895524 489.691189 165.236923 489.603724 165.578322 489.516616 165.919720 489.429874 166.261119 489.343504 166.602517 489.257515 166.943916 489.171914 167.285315 489.086708 167.626713 489.001906 167.968112 488.917514 168.309510 488.833541 168.650909 488.749994 168.992308 488.666881 169.333706 488.584209 169.675105 488.501986 170.016503 488.420220 170.357902 488.338917 170.699301 488.258087 171.040699 488.177736 171.382098 488.097872 171.723497 488.018502 172.064895 487.939635 172.406294 487.861278 172.747692 487.783439 173.089091 487.706124 173.430490 487.629342 173.771888 487.553101 174.113287 487.477408 174.454685 487.402270 174.796084 487.327695 175.137483 487.253692 175.478881 487.180267 175.820280 487.107427 176.161678 487.035182 176.503077 486.963538 176.844476 486.892503 177.185874 486.822084 177.527273 486.752290 177.868671 486.683127 178.210070 486.614604 178.551469 486.546728 178.892867 486.479506 179.234266 486.412947 179.575664 486.347058 179.917063 486.281846 180.258462 486.217320 180.599860 486.153486 180.941259 486.090352 181.282657 486.027927 181.624056 485.966217 181.965455 485.905230 182.306853 485.844974 182.648252 485.785457 182.989650 485.726686 183.331049 485.668668 183.672448 485.611412 184.013846 485.554924 184.355245 485.499214 184.696643 485.444287 185.038042 485.390152 185.379441 485.336817 185.720839 485.284289 186.062238 485.232575 186.403636 485.181684 186.745035 485.131622 187.086434 485.082398 187.427832 485.034020 187.769231 484.986493 188.110629 484.939828 188.452028 484.894030 188.793427 484.849108 189.134825 484.805069 189.476224 484.761921 189.817622 484.719669 190.159021 484.678311 190.500420 484.637841 190.841818 484.598254 191.183217 484.559546 191.524615 484.521711 191.866014 484.484743 192.207413 484.448639 192.548811 484.413392 192.890210 484.378999 193.231608 484.345453 193.573007 484.312750 193.914406 484.280885 194.255804 484.249852 194.597203 484.219646 194.938601 484.190263 195.280000 484.161698 195.621399 484.133945 195.962797 484.106999 196.304196 484.080855 196.645594 484.055508 196.986993 484.030953 197.328392 484.007185 197.669790 483.984199 198.011189 483.961990 198.352587 483.940553 198.693986 483.919882 199.035385 483.899973 199.376783 483.880821 199.718182 483.862420 200.059580 483.844765 200.400979 483.827852 200.742378 483.811675 201.083776 483.796229 201.425175 483.781509 201.766573 483.767511 202.107972 483.754228 202.449371 483.741656 202.790769 483.729791 203.132168 483.718625 203.473566 483.708156 203.814965 483.698377 204.156364 483.689284 204.497762 483.680872 204.839161 483.673135 205.180559 483.666068 205.521958 483.659666 205.863357 483.653925 206.204755 483.648839 206.546154 483.644403 206.887552 483.640612 207.228951 483.637461 207.570350 483.634945 207.911748 483.633059 208.253147 483.631798 208.594545 483.631156 208.935944 483.631129 209.277343 483.631711 209.618741 483.632898 209.960140 483.634684 210.301538 483.637065 210.642937 483.640035 210.984336 483.643589 211.325734 483.647722 211.667133 483.652430 212.008531 483.657706 212.349930 483.663546 212.691329 483.669946 213.032727 483.676899 213.374126 483.684400 213.715524 483.692446 214.056923 483.701030 214.398322 483.710147 214.739720 483.719793 215.081119 483.729962 215.422517 483.740650 215.763916 483.751851 216.105315 483.763560 216.446713 483.775772 216.788112 483.788482 217.129510 483.801685 217.470909 483.815376 217.812308 483.829550 218.153706 483.844202 218.495105 483.859326 218.836503 483.874918 219.177902 483.890973 219.519301 483.907485 219.860699 483.924450 220.202098 483.941862 220.543497 483.959716 220.884895 483.978007 221.226294 483.996731 221.567692 484.015881 221.909091 484.035454 222.250490 484.055443 222.591888 484.075845 222.933287 484.096653 223.274685 484.117863 223.616084 484.139470 223.957483 484.161468 224.298881 484.183853 224.640280 484.206619 224.981678 484.229762 225.323077 484.253276 225.664476 484.277156 226.005874 484.301397 226.347273 484.325995 226.688671 484.350944 227.030070 484.376238 227.371469 484.401874 227.712867 484.427845 228.054266 484.454147 228.395664 484.480775 228.737063 484.507723 229.078462 484.534987 229.419860 484.562562 229.761259 484.590442 230.102657 484.618622 230.444056 484.647098 230.785455 484.675864 231.126853 484.704915 231.468252 484.734246 231.809650 484.763852 232.151049 484.793728 232.492448 484.823869 232.833846 484.854270 233.175245 484.884926 233.516643 484.915831 233.858042 484.946981 234.199441 484.978370 234.540839 485.009994 234.882238 485.041847 235.223636 485.073925 235.565035 485.106222 235.906434 485.138733 236.247832 485.171453 236.589231 485.204377 236.930629 485.237501 237.272028 485.270818 237.613427 485.304324 237.954825 485.338014 238.296224 485.371882 238.637622 485.405925 238.979021 485.440135 239.320420 485.474510 239.661818 485.509042 240.003217 485.543728 240.344615 485.578563 240.686014 485.613541 241.027413 485.648656 241.368811 485.683905 241.710210 485.719282 242.051608 485.754782 242.393007 485.790400 242.734406 485.826131 243.075804 485.861969 243.417203 485.897910 243.758601 485.933949 244.100000 485.970080 244.441399 486.006299 244.782797 486.042600 245.124196 486.078979 245.465594 486.115429 245.806993 486.151947 246.148392 486.188528 246.489790 486.225165 246.831189 486.261854 247.172587 486.298590 247.513986 486.335368 247.855385 486.372183 248.196783 486.409030 248.538182 486.445903 248.879580 486.482798 249.220979 486.519709 249.562378 486.556632 249.903776 486.593561 250.245175 486.630491 250.586573 486.667418 250.927972 486.704336 251.269371 486.741240 251.610769 486.778125 251.952168 486.814986 252.293566 486.851818 252.634965 486.888616 252.976364 486.925374 253.317762 486.962088 253.659161 486.998753 254.000559 487.035364 254.341958 487.071915 254.683357 487.108401 255.024755 487.144818 255.366154 487.181160 255.707552 487.217422 256.048951 487.253599 256.390350 487.289687 256.731748 487.325679 257.073147 487.361571 257.414545 487.397359 257.755944 487.433036 258.097343 487.468597 258.438741 487.504039 258.780140 487.539355 259.121538 487.574541 259.462937 487.609591 259.804336 487.644500 260.145734 487.679264 260.487133 487.713877 260.828531 487.748334 261.169930 487.782631 261.511329 487.816761 261.852727 487.850720 262.194126 487.884504 262.535524 487.918106 262.876923 487.951522 263.218322 487.984746 263.559720 488.017775 263.901119 488.050601 264.242517 488.083222 264.583916 488.115631 264.925315 488.147823 265.266713 488.179793 265.608112 488.211537 265.949510 488.243049 266.290909 488.274324 266.632308 488.305357 266.973706 488.336142 267.315105 488.366676 267.656503 488.396953 267.997902 488.426967 268.339301 488.456714 268.680699 488.486189 269.022098 488.515386 269.363497 488.544301 269.704895 488.572928 270.046294 488.601262 270.387692 488.629299 270.729091 488.657032 271.070490 488.684458 271.411888 488.711571 271.753287 488.738367 272.094685 488.764838 272.436084 488.790982 272.777483 488.816793 273.118881 488.842265 273.460280 488.867394 273.801678 488.892175 274.143077 488.916602 274.484476 488.940670 274.825874 488.964375 275.167273 488.987712 275.508671 489.010681 275.850070 489.033283 276.191469 489.055517 276.532867 489.077385 276.874266 489.098887 277.215664 489.120023 277.557063 489.140795 277.898462 489.161202 278.239860 489.181246 278.581259 489.200927 278.922657 489.220245 279.264056 489.239200 279.605455 489.257795 279.946853 489.276028 280.288252 489.293901 280.629650 489.311414 280.971049 489.328568 281.312448 489.345363 281.653846 489.361800 281.995245 489.377879 282.336643 489.393602 282.678042 489.408967 283.019441 489.423977 283.360839 489.438631 283.702238 489.452930 284.043636 489.466875 284.385035 489.480467 284.726434 489.493705 285.067832 489.506590 285.409231 489.519123 285.750629 489.531305 286.092028 489.543135 286.433427 489.554616 286.774825 489.565746 287.116224 489.576527 287.457622 489.586959 287.799021 489.597043 288.140420 489.606779 288.481818 489.616168 288.823217 489.625210 289.164615 489.633907 289.506014 489.642258 289.847413 489.650264 290.188811 489.657925 290.530210 489.665243 290.871608 489.672217 291.213007 489.678849 291.554406 489.685139 291.895804 489.691087 292.237203 489.696694 292.578601 489.701960 292.920000 489.706886 293.261399 489.711473 293.602797 489.715721 293.944196 489.719631 294.285594 489.723203 294.626993 489.726438 294.968392 489.729336 295.309790 489.731899 295.651189 489.734125 295.992587 489.736017 296.333986 489.737574 296.675385 489.738797 297.016783 489.739687 297.358182 489.740244 297.699580 489.740469 298.040979 489.740363 298.382378 489.739925 298.723776 489.739156 299.065175 489.738058 299.406573 489.736630 299.747972 489.734873 300.089371 489.732788 300.430769 489.730375 300.772168 489.727635 301.113566 489.724568 301.454965 489.721175 301.796364 489.717456 302.137762 489.713412 302.479161 489.709044 302.820559 489.704352 303.161958 489.699337 303.503357 489.693998 303.844755 489.688337 304.186154 489.682355 304.527552 489.676052 304.868951 489.669427 305.210350 489.662483 305.551748 489.655219 305.893147 489.647637 306.234545 489.639735 306.575944 489.631516 306.917343 489.622980 307.258741 489.614127 307.600140 489.604958 307.941538 489.595473 308.282937 489.585673 308.624336 489.575558 308.965734 489.565130 309.307133 489.554388 309.648531 489.543333 309.989930 489.531966 310.331329 489.520287 310.672727 489.508296 311.014126 489.495995 311.355524 489.483384 311.696923 489.470464 312.038322 489.457234 312.379720 489.443696 312.721119 489.429850 313.062517 489.415697 313.403916 489.401236 313.745315 489.386470 314.086713 489.371398 314.428112 489.356021 314.769510 489.340339 315.110909 489.324353 315.452308 489.308063 315.793706 489.291471 316.135105 489.274576 316.476503 489.257379 316.817902 489.239882 317.159301 489.222083 317.500699 489.203984 317.842098 489.185586 318.183497 489.166888 318.524895 489.147892 318.866294 489.128598 319.207692 489.109007 319.549091 489.089118 319.890490 489.068934 320.231888 489.048453 320.573287 489.027678 320.914685 489.006608 321.256084 488.985243 321.597483 488.963586 321.938881 488.941635 322.280280 488.919391 322.621678 488.896856 322.963077 488.874030 323.304476 488.850912 323.645874 488.827505 323.987273 488.803807 324.328671 488.779821 324.670070 488.755546 325.011469 488.730983 325.352867 488.706133 325.694266 488.680995 326.035664 488.655572 326.377063 488.629862 326.718462 488.603867 327.059860 488.577588 327.401259 488.551024 327.742657 488.524177 328.084056 488.497047 328.425455 488.469634 328.766853 488.441939 329.108252 488.413963 329.449650 488.385706 329.791049 488.357169 330.132448 488.328352 330.473846 488.299255 330.815245 488.269880 331.156643 488.240228 331.498042 488.210297 331.839441 488.180090 332.180839 488.149606 332.522238 488.118846 332.863636 488.087811 333.205035 488.056501 333.546434 488.024917 333.887832 487.993060 334.229231 487.960929 334.570629 487.928526 334.912028 487.895850 335.253427 487.862904 335.594825 487.829686 335.936224 487.796198 336.277622 487.762440 336.619021 487.728413 336.960420 487.694118 337.301818 487.659554 337.643217 487.624722 337.984615 487.589624 338.326014 487.554259 338.667413 487.518628 339.008811 487.482732 339.350210 487.446571 339.691608 487.410146 340.033007 487.373457 340.374406 487.336504 340.715804 487.299290 341.057203 487.261813 341.398601 487.224074 341.740000 487.186075 342.081399 487.147816 342.422797 487.109296 342.764196 487.070517 343.105594 487.031480 343.446993 486.992184 343.788392 486.952631 344.129790 486.912820 344.471189 486.872753 344.812587 486.832430 345.153986 486.791852 345.495385 486.751019 345.836783 486.709931 346.178182 486.668590 346.519580 486.626995 346.860979 486.585148 347.202378 486.543049 347.543776 486.500698 347.885175 486.458096 348.226573 486.415244 348.567972 486.372141 348.909371 486.328790 349.250769 486.285189 349.592168 486.241341 349.933566 486.197244 350.274965 486.152901 350.616364 486.108311 350.957762 486.063475 351.299161 486.018393 351.640559 485.973067 351.981958 485.927496 352.323357 485.881682 352.664755 485.835624 353.006154 485.789323 353.347552 485.742780 353.688951 485.695996 354.030350 485.648970 354.371748 485.601704 354.713147 485.554198 355.054545 485.506453 355.395944 485.458469 355.737343 485.410246 356.078741 485.361786 356.420140 485.313089 356.761538 485.264155 357.102937 485.214985 357.444336 485.165579 357.785734 485.115938 358.127133 485.066063 358.468531 485.015954 358.809930 484.965612 359.151329 484.915037 359.492727 484.864230 359.834126 484.813191 360.175524 484.761921 360.516923 484.710421 360.858322 484.658692 361.199720 484.606738 361.541119 484.554561 361.882517 484.502163 362.223916 484.449547 362.565315 484.396715 362.906713 484.343669 363.248112 484.290413 363.589510 484.236948 363.930909 484.183277 364.272308 484.129403 364.613706 484.075328 364.955105 484.021053 365.296503 483.966583 365.637902 483.911919 365.979301 483.857064 366.320699 483.802020 366.662098 483.746789 367.003497 483.691375 367.344895 483.635779 367.686294 483.580004 368.027692 483.524052 368.369091 483.467927 368.710490 483.411630 369.051888 483.355163 369.393287 483.298530 369.734685 483.241733 370.076084 483.184774 370.417483 483.127655 370.758881 483.070380 371.100280 483.012950 371.441678 482.955368 371.783077 482.897636 372.124476 482.839758 372.465874 482.781735 372.807273 482.723569 373.148671 482.665264 373.490070 482.606822 373.831469 482.548245 374.172867 482.489535 374.514266 482.430696 374.855664 482.371729 375.197063 482.312637 375.538462 482.253423 375.879860 482.194088 376.221259 482.134636 376.562657 482.075069 376.904056 482.015389 377.245455 481.955599 377.586853 481.895701 377.928252 481.835697 378.269650 481.775591 378.611049 481.715384 378.952448 481.655079 379.293846 481.594679 379.635245 481.534186 379.976643 481.473602 380.318042 481.412930 380.659441 481.352172 381.000839 481.291331 381.342238 481.230409 381.683636 481.169409 382.025035 481.108333 382.366434 481.047183 382.707832 480.985962 383.049231 480.924673 383.390629 480.863318 383.732028 480.801899 384.073427 480.740419 384.414825 480.678881 384.756224 480.617286 385.097622 480.555637 385.439021 480.493937 385.780420 480.432188 386.121818 480.370393 386.463217 480.308554 386.804615 480.246673 387.146014 480.184753 387.487413 480.122796 387.828811 480.060806 388.170210 479.998783 388.511608 479.936732 388.853007 479.874653 389.194406 479.812551 389.535804 479.750426 389.877203 479.688282 390.218601 479.626121 390.560000 479.563945 390.901399 479.501758 391.242797 479.439560 391.584196 479.377356 391.925594 479.315147 392.266993 479.252936 392.608392 479.190725 392.949790 479.128516 393.291189 479.066313 393.632587 479.004117 393.973986 478.941932 394.315385 478.879759 394.656783 478.817600 394.998182 478.755459 395.339580 478.693338 395.680979 478.631240 396.022378 478.569166 396.363776 478.507119 396.705175 478.445102 397.046573 478.383117 397.387972 478.321167 397.729371 478.259254 398.070769 478.197380 398.412168 478.135548 398.753566 478.073761 399.094965 478.012020 399.436364 477.950329 399.777762 477.888690 400.119161 477.827105 400.460559 477.765576 400.801958 477.704107 401.143357 477.642699 401.484755 477.581355 401.826154 477.520078 402.167552 477.458870 402.508951 477.397733 402.850350 477.336670 403.191748 477.275683 403.533147 477.214775 403.874545 477.153948 404.215944 477.093205 404.557343 477.032549 404.898741 476.971980 405.240140 476.911503 405.581538 476.851119 405.922937 476.790832 406.264336 476.730642 406.605734 476.670554 406.947133 476.610569 407.288531 476.550689 407.629930 476.490918 407.971329 476.431258 408.312727 476.371711 408.654126 476.312279 408.995524 476.252965 409.336923 476.193772 409.678322 476.134702 410.019720 476.075757 410.361119 476.016941 410.702517 475.958254 411.043916 475.899700 411.385315 475.841282 411.726713 475.783001 412.068112 475.724861 412.409510 475.666863 412.750909 475.609010 413.092308 475.551304 413.433706 475.493749 413.775105 475.436346 414.116503 475.379098 414.457902 475.322007 414.799301 475.265076 415.140699 475.208307 415.482098 475.151703 415.823497 475.095266 416.164895 475.038999 416.506294 474.982904 416.847692 474.926983 417.189091 474.871239 417.530490 474.815675 417.871888 474.760293 418.213287 474.705095 418.554685 474.650083 418.896084 474.595261 419.237483 474.540631 419.578881 474.486195 419.920280 474.431955 420.261678 474.377915 420.603077 474.324076 420.944476 474.270441 421.285874 474.217013 421.627273 474.163793 421.968671 474.110785 422.310070 474.057991 422.651469 474.005412 422.992867 473.953053 423.334266 473.900915 423.675664 473.849000 424.017063 473.797311 424.358462 473.745851 424.699860 473.694622 425.041259 473.643627 425.382657 473.592867 425.724056 473.542346 426.065455 473.492065 426.406853 473.442028 426.748252 473.392236 427.089650 473.342693 427.431049 473.293400 427.772448 473.244361 428.113846 473.195576 428.455245 473.147050 428.796643 473.098785 429.138042 473.050782 429.479441 473.003045 429.820839 472.955575 430.162238 472.908376 430.503636 472.861449 430.845035 472.814798 431.186434 472.768424 431.527832 472.722330 431.869231 472.676519 432.210629 472.630993 432.552028 472.585754 432.893427 472.540805 433.234825 472.496149 433.576224 472.451787 433.917622 472.407723 434.259021 472.363959 434.600420 472.320496 434.941818 472.277338 435.283217 472.234488 435.624615 472.191947 435.966014 472.149718 436.307413 472.107803 436.648811 472.066205 436.990210 472.024927 437.331608 471.983970 437.673007 471.943338 438.014406 471.903033 438.355804 471.863056 438.697203 471.823412 439.038601 471.784101 439.380000 471.745127 439.721399 471.706492 440.062797 471.668199 440.404196 471.630249 440.745594 471.592646 441.086993 471.555392 441.428392 471.518488 441.769790 471.481939 442.111189 471.445746 442.452587 471.409911 442.793986 471.374438 443.135385 471.339328 443.476783 471.304584 443.818182 471.270209 444.159580 471.236205 444.500979 471.202574 444.842378 471.169318 445.183776 471.136442 445.525175 471.103945 445.866573 471.071828 446.207972 471.040067 446.549371 471.008636 446.890769 470.977508 447.232168 470.946658 447.573566 470.916059 447.914965 470.885684 448.256364 470.855506 448.597762 470.825500 448.939161 470.795638 449.280559 470.765894 449.621958 470.736242 449.963357 470.706655 450.304755 470.677106 450.646154 470.647569 450.987552 470.618019 451.328951 470.588427 451.670350 470.558767 452.011748 470.529014 452.353147 470.499140 452.694545 470.469119 453.035944 470.438925 453.377343 470.408530 453.718741 470.377910 454.060140 470.347036 454.401538 470.315882 454.742937 470.284423 455.084336 470.252630 455.425734 470.220479 455.767133 470.187942 456.108531 470.154994 456.449930 470.121606 456.791329 470.087753 457.132727 470.053409 457.474126 470.018547 457.815524 469.983140 458.156923 469.947161 458.498322 469.910585 458.839720 469.873385 459.181119 469.835535 459.522517 469.797007 459.863916 469.757775 460.205315 469.717813 460.546713 469.677094 460.888112 469.635592 461.229510 469.593281 461.570909 469.550133 461.912308 469.506122 462.253706 469.461222 462.595105 469.415406 462.936503 469.368648 463.277902 469.320921 463.619301 469.272199 463.960699 469.222455 464.302098 469.171663 464.643497 469.119796 464.984895 469.066827 465.326294 469.012730 465.667692 468.957480 466.009091 468.901048 466.350490 468.843409 466.691888 468.784535 467.033287 468.724402 467.374685 468.662981 467.716084 468.600248 468.057483 468.536174 468.398881 468.470733 468.740280 468.403900 469.081678 468.335647 469.423077 468.265948 469.764476 468.194777 470.105874 468.122107 470.447273 468.047911 470.788671 467.972163 471.130070 467.894836 471.471469 467.815905 471.812867 467.735342 472.154266 467.653121 472.495664 467.569215 472.837063 467.483598 473.178462 467.396244 473.519860 467.307125 473.861259 467.216216 474.202657 467.123490 474.544056 467.028919 474.885455 466.932479 475.226853 466.834142 475.568252 466.733882 475.909650 466.631673 476.251049 466.527487 476.592448 466.421298 476.933846 466.313080 477.275245 466.202807 477.616643 466.090451 477.958042 465.975986 478.299441 465.859387 478.640839 465.740625 478.982238 465.619675 479.323636 465.496510 479.665035 465.371104 480.006434 465.243431 480.347832 465.113462 480.689231 464.981173 481.030629 464.846537 481.372028 464.709527 481.713427 464.570116 482.054825 464.428279 482.396224 464.283988 482.737622 464.137218 483.079021 463.987941 483.420420 463.836131 483.761818 463.681761 484.103217 463.524806 484.444615 463.365238 484.786014 463.203031 485.127413 463.038159 485.468811 462.870595 485.810210 462.700312 486.151608 462.527284 486.493007 462.351485 486.834406 462.172888 487.175804 461.991466 487.517203 461.807193 487.858601 461.620043 488.200000 461.429989 488.541399 461.237004 488.882797 461.041062 489.224196 460.842136 489.565594 460.640200 489.906993 460.435228 490.248392 460.227193 490.589790 460.016068 490.931189 459.801826 491.272587 459.584442 491.613986 459.363889 491.955385 459.140141 492.296783 458.913170 492.638182 458.682950 492.979580 458.449456 493.320979 458.212659 493.662378 457.972534 494.003776 457.729055 494.345175 457.482194 494.686573 457.231926 495.027972 456.978223 495.369371 456.721060 495.710769 456.460409 496.052168 456.196244 496.393566 455.928540 496.734965 455.657268 497.076364 455.382403 497.417762 455.103918 497.759161 454.821787 498.100559 454.535983 498.441958 454.246480 498.783357 453.953251 499.124755 453.656269 499.466154 453.355508 499.807552 453.050943 500.148951 452.742545 500.490350 452.430289 500.831748 452.114147 501.173147 451.794095 501.514545 451.470104 501.855944 451.142149 502.197343 450.810203 502.538741 450.474240 502.880140 450.134232 503.221538 449.790154 503.562937 449.441979 503.904336 449.089681 504.245734 448.733232 504.587133 448.372607 504.928531 448.007779 505.269930 447.638721 505.611329 447.265407 505.952727 446.887811 506.294126 446.505905 506.635524 446.119664 506.976923 445.729061 507.318322 445.334069 507.659720 444.934662 508.001119 444.530813 508.342517 444.122497 508.683916 443.709685 509.025315 443.292353 509.366713 442.870472 509.708112 442.444018 510.049510 442.012963 510.390909 441.577280 510.732308 441.136944 511.073706 440.691927 511.415105 440.242204 511.756503 439.787748 512.097902 439.328532 512.439301 438.864529 512.780699 438.395714 513.122098 437.922059 513.463497 437.443539 513.804895 436.960126 514.146294 436.471795 514.487692 435.978518 514.829091 435.480269 515.170490 434.977022 515.511888 434.468750 515.853287 433.955427 516.194685 433.437026 516.536084 432.913520 516.877483 432.384883 517.218881 431.851089 517.560280 431.312112 517.901678 430.767923 518.243077 430.218498 518.584476 429.663809 518.925874 429.103830 519.267273 428.538535 519.608671 427.967897 519.950070 427.391889 520.291469 426.810486 520.632867 426.223659 520.974266 425.631384 521.315664 425.033633 521.657063 424.430380 521.998462 423.821599 522.339860 423.207262 522.681259 422.587344 523.022657 421.961818 523.364056 421.330657 523.705455 420.693835 524.046853 420.051326 524.388252 419.403102 524.729650 418.749138 525.071049 418.089406 525.412448 417.423881 525.753846 416.752536 526.095245 416.075344 526.436643 415.392279 526.778042 414.703314 527.119441 414.008423 527.460839 413.307579 527.802238 412.600756 528.143636 411.887927 528.485035 411.169066 528.826434 410.444146 529.167832 409.713141 529.509231 408.976024 529.850629 408.232769 530.192028 407.483348 530.533427 406.727737 530.874825 405.965908 531.216224 405.197846 531.557622 404.423585 531.899021 403.643170 532.240420 402.856646 532.581818 402.064058 532.923217 401.265451 533.264615 400.460871 533.606014 399.650361 533.947413 398.833968 534.288811 398.011736 534.630210 397.183711 534.971608 396.349937 535.313007 395.510461 535.654406 394.665326 535.995804 393.814577 536.337203 392.958261 536.678601 392.096422 537.020000 391.229105 537.361399 390.356355 537.702797 389.478218 538.044196 388.594738 538.385594 387.705960 538.726993 386.811930 539.068392 385.912693 539.409790 385.008294 539.751189 384.098777 540.092587 383.184188 540.433986 382.264573 540.775385 381.339975 541.116783 380.410441 541.458182 379.476015 541.799580 378.536742 542.140979 377.592668 542.482378 376.643837 542.823776 375.690295 543.165175 374.732086 543.506573 373.769257 543.847972 372.801851 544.189371 371.829915 544.530769 370.853492 544.872168 369.872629 545.213566 368.887369 545.554965 367.897760 545.896364 366.903844 546.237762 365.905668 546.579161 364.903277 546.920559 363.896715 547.261958 362.886028 547.603357 361.871261 547.944755 360.852459 548.286154 359.829667 548.627552 358.802930 548.968951 357.772294 549.310350 356.737802 549.651748 355.699501 549.993147 354.657436 550.334545 353.611651 550.675944 352.562191 551.017343 351.509103 551.358741 350.452430 551.700140 349.392218 552.041538 348.328512 552.382937 347.261357 552.724336 346.190799 553.065734 345.116881 553.407133 344.039650 553.748531 342.959151 554.089930 341.875428 554.431329 340.788526 554.772727 339.698491 555.114126 338.605368 555.455524 337.509202 555.796923 336.410038 556.138322 335.307921 556.479720 334.202896 556.821119 333.095008 557.162517 331.984303 557.503916 330.870825 557.845315 329.754619 558.186713 328.635731 558.528112 327.514206 558.869510 326.390088 559.210909 325.263424 559.552308 324.134257 559.893706 323.002633 560.235105 321.868597 560.576503 320.732195 560.917902 319.593470 561.259301 318.452469 561.600699 317.309237 561.942098 316.163818 562.283497 315.016258 562.624895 313.866601 562.966294 312.714893 563.307692 311.561179 563.649091 310.405504 563.990490 309.247913 564.331888 308.088452 564.673287 306.927164 565.014685 305.764096 565.356084 304.599292 565.697483 303.432798 566.038881 302.264658 566.380280 301.094918 566.721678 299.923623 567.063077 298.750817 567.404476 297.576547 567.745874 296.400856 568.087273 295.223791 568.428671 294.045396 568.770070 292.865716 569.111469 291.684796 569.452867 290.502682 569.794266 289.319419 570.135664 288.135051 570.477063 286.949623 570.818462 285.763182 571.159860 284.575772 571.501259 283.387437 571.842657 282.198224 572.184056 281.008176 572.525455 279.817340 572.866853 278.625761 573.208252 277.433482 573.549650 276.240550 573.891049 275.047010 574.232448 273.852907 574.573846 272.658285 574.915245 271.463190 575.256643 270.267667 575.598042 269.071761 575.939441 267.875517 576.280839 266.678981 576.622238 265.482197 576.963636 264.285210 577.305035 263.088065 577.646434 261.890808 577.987832 260.693484 578.329231 259.496138 578.670629 258.298814 579.012028 257.101558 579.353427 255.904415 579.694825 254.707431 580.036224 253.510649 580.377622 252.314116 580.719021 251.117876 581.060420 249.921974 581.401818 248.726456 581.743217 247.531367 582.084615 246.336751 582.426014 245.142654 582.767413 243.949121 583.108811 242.756197 583.450210 241.563927 583.791608 240.372356 584.133007 239.181529 584.474406 237.991492 584.815804 236.802289 585.157203 235.613966 585.498601 234.426567 585.840000 233.240137 586.181399 232.054723 586.522797 230.870368 586.864196 229.687118 587.205594 228.505018 587.546993 227.324114 587.888392 226.144449 588.229790 224.966070 588.571189 223.789021 588.912587 222.613348 589.253986 221.439095 589.595385 220.266307 589.936783 219.095031 590.278182 217.925310 590.619580 216.757190 590.960979 215.590716 591.302378 214.425933 591.643776 213.262886 591.985175 212.101621 592.326573 210.942181 592.667972 209.784614 593.009371 208.628962 593.350769 207.475273 593.692168 206.323589 594.033566 205.173958 594.374965 204.026424 594.716364 202.881031 595.057762 201.737826 595.399161 200.596852 595.740559 199.458156 596.081958 198.321782 596.423357 197.187775 596.764755 196.056181 597.106154 194.927044 597.447552 193.800411 597.788951 192.676324 598.130350 191.554831 598.471748 190.435975 598.813147 189.319803 599.154545 188.206358 599.495944 187.095687 599.837343 185.987834 600.178741 184.882844 600.520140 183.780762 600.861538 182.681635 601.202937 181.585505 601.544336 180.492420 601.885734 179.402423 602.227133 178.315560 602.568531 177.231876 602.909930 176.151416 603.251329 175.074225 603.592727 174.000348 603.934126 172.929831 604.275524 171.862718 604.616923 170.799054 604.958322 169.738885 605.299720 168.682256 605.641119 167.629211 605.982517 166.579796 606.323916 165.534056 606.665315 164.492037 607.006713 163.453782 607.348112 162.419337 607.689510 161.388748 608.030909 160.362058 608.372308 159.339315 608.713706 158.320562 609.055105 157.305844 609.396503 156.295207 609.737902 155.288696 610.079301 154.286356 610.420699 153.288232 610.762098 152.294369 611.103497 151.304811 611.444895 150.319606 611.786294 149.338796 612.127692 148.362428 612.469091 147.390546 612.810490 146.423196 613.151888 145.460422 613.493287 144.502271 613.834685 143.548786 614.176084 142.600013 614.517483 141.655997 614.858881 140.716783 615.200280 139.782416 615.541678 138.852942 615.883077 137.928405 616.224476 137.008850 616.565874 136.094315 616.907273 135.184807 617.248671 134.280324 617.590070 133.380866 617.931469 132.486432 618.272867 131.597021 618.614266 130.712632 618.955664 129.833263 619.297063 128.958915 619.638462 128.089586 619.979860 127.225275 620.321259 126.365981 620.662657 125.511703 621.004056 124.662441 621.345455 123.818193 621.686853 122.978958 622.028252 122.144736 622.369650 121.315526 622.711049 120.491327 623.052448 119.672137 623.393846 118.857955 623.735245 118.048782 624.076643 117.244616 624.418042 116.445455 624.759441 115.651300 625.100839 114.862148 625.442238 114.078000 625.783636 113.298854 626.125035 112.524709 626.466434 111.755565 626.807832 110.991420 627.149231 110.232273 627.490629 109.478124 627.832028 108.728972 628.173427 107.984815 628.514825 107.245653 628.856224 106.511485 629.197622 105.782309 629.539021 105.058126 629.880420 104.338933 630.221818 103.624731 630.563217 102.915517 630.904615 102.211292 631.246014 101.512054 631.587413 100.817802 631.928811 100.128535 632.270210 99.444253 632.611608 98.764955 632.953007 98.090639 633.294406 97.421304 633.635804 96.756950 633.977203 96.097576 634.318601 95.443180 634.660000 94.793763 635.001399 94.149322 635.342797 93.509857 635.684196 92.875368 636.025594 92.245852 636.366993 91.621310 636.708392 91.001739 637.049790 90.387140 637.391189 89.777512 637.732587 89.172852 638.073986 88.573162 638.415385 87.978438 638.756783 87.388682 639.098182 86.803890 639.439580 86.224064 639.780979 85.649201 640.122378 85.079302 640.463776 84.514364 640.805175 83.954387 641.146573 83.399370 641.487972 82.849312 641.829371 82.304213 642.170769 81.764070 642.512168 81.228884 642.853566 80.698653 643.194965 80.173377 643.536364 79.653054 643.877762 79.137683 644.219161 78.627264 644.560559 78.121796 644.901958 77.621277 645.243357 77.125708 645.584755 76.635086 645.926154 76.149411 646.267552 75.668682 646.608951 75.192897 646.950350 74.722057 647.291748 74.256161 647.633147 73.795206 647.974545 73.339193 648.315944 72.888119 648.657343 72.441986 648.998741 72.000791 649.340140 71.564533 649.681538 71.133212 650.022937 70.706826 650.364336 70.285376 650.705734 69.868859 651.047133 69.457274 651.388531 69.050622 651.729930 68.648901 652.071329 68.252109 652.412727 67.860247 652.754126 67.473313 653.095524 67.091306 653.436923 66.714226 653.778322 66.342070 654.119720 65.974839 654.461119 65.612532 654.802517 65.255147 655.143916 64.902684 655.485315 64.555141 655.826713 64.212518 656.168112 63.874814 656.509510 63.542027 656.850909 63.214158 657.192308 62.891204 657.533706 62.573166 657.875105 62.260041 658.216503 61.951830 658.557902 61.648531 658.899301 61.350143 659.240699 61.056665 659.582098 60.768097 659.923497 60.484437 660.264895 60.205685 660.606294 59.931840 660.947692 59.662900 661.289091 59.398864 661.630490 59.139733 661.971888 58.885504 662.313287 58.636177 662.654685 58.391751 662.996084 58.152226 663.337483 57.917599 663.678881 57.687870 664.020280 57.463039 664.361678 57.243104 664.703077 57.028064 665.044476 56.817918 665.385874 56.612666 665.727273 56.412307 666.068671 56.216839 666.410070 56.026262 666.751469 55.840574 667.092867 55.659775 667.434266 55.483864 667.775664 55.312840 668.117063 55.146702 668.458462 54.985449 668.799860 54.829080 669.141259 54.677594 669.482657 54.530990 669.824056 54.389268 670.165455 54.252425 670.506853 54.120463 670.848252 53.993378 671.189650 53.871172 671.531049 53.753841 671.872448 53.641387 672.213846 53.533807 672.555245 53.431101 672.896643 53.333267 673.238042 53.240306 673.579441 53.152215 673.920839 53.068995 674.262238 52.990644 674.603636 52.917160 674.945035 52.848544 675.286434 52.784794 675.627832 52.725910 675.969231 52.671890 676.310629 52.622733 676.652028 52.578439 676.993427 52.539006 677.334825 52.504434 677.676224 52.474722 678.017622 52.449869 678.359021 52.429873 678.700420 52.414734 679.041818 52.404451 679.383217 52.399024 679.724615 52.398450 680.066014 52.402729 680.407413 52.411861 680.748811 52.425844 681.090210 52.444677 681.431608 52.468359 681.773007 52.496890 682.114406 52.530269 682.455804 52.568494 682.797203 52.611564 683.138601 52.659480 683.480000 52.712239 683.821399 52.769841 684.162797 52.832285 684.504196 52.899569 684.845594 52.971694 685.186993 53.048658 685.528392 53.130460 685.869790 53.217099 686.211189 53.308575 686.552587 53.404885 686.893986 53.506031 687.235385 53.612009 687.576783 53.722820 687.918182 53.838463 688.259580 53.958936 688.600979 54.084239 688.942378 54.214371 689.283776 54.349330 689.625175 54.489117 689.966573 54.633729 690.307972 54.783166 690.649371 54.937428 690.990769 55.096512 691.332168 55.260419 691.673566 55.429147 692.014965 55.602696 692.356364 55.781063 692.697762 55.964249 693.039161 56.152253 693.380559 56.345073 693.721958 56.542709 694.063357 56.745160 694.404755 56.952424 694.746154 57.164501 695.087552 57.381390 695.428951 57.603090 695.770350 57.829600 696.111748 58.060919 696.453147 58.297046 696.794545 58.537980 697.135944 58.783721 697.477343 59.034267 697.818741 59.289617 698.160140 59.549771 698.501538 59.814727 698.842937 60.084485 699.184336 60.359043 699.525734 60.638401 699.867133 60.922558 700.208531 61.211513 700.549930 61.505264 700.891329 61.803812 701.232727 62.107154 701.574126 62.415291 701.915524 62.728214 702.256923 63.045889 702.598322 63.368275 702.939720 63.695332 703.281119 64.027018 703.622517 64.363293 703.963916 64.704115 704.305315 65.049444 704.646713 65.399238 704.988112 65.753457 705.329510 66.112060 705.670909 66.475006 706.012308 66.842254 706.353706 67.213762 706.695105 67.589491 707.036503 67.969399 707.377902 68.353445 707.719301 68.741588 708.060699 69.133788 708.402098 69.530003 708.743497 69.930192 709.084895 70.334315 709.426294 70.742331 709.767692 71.154198 710.109091 71.569876 710.450490 71.989324 710.791888 72.412500 711.133287 72.839365 711.474685 73.269876 711.816084 73.703994 712.157483 74.141677 712.498881 74.582883 712.840280 75.027573 713.181678 75.475706 713.523077 75.927240 713.864476 76.382134 714.205874 76.840348 714.547273 77.301840 714.888671 77.766570 715.230070 78.234497 715.571469 78.705579 715.912867 79.179776 716.254266 79.657048 716.595664 80.137352 716.937063 80.620648 717.278462 81.106896 717.619860 81.596053 717.961259 82.088080 718.302657 82.582935 718.644056 83.080578 718.985455 83.580967 719.326853 84.084061 719.668252 84.589820 720.009650 85.098203 720.351049 85.609168 720.692448 86.122675 721.033846 86.638683 721.375245 87.157151 721.716643 87.678038 722.058042 88.201303 722.399441 88.726905 722.740839 89.254803 723.082238 89.784957 723.423636 90.317325 723.765035 90.851866 724.106434 91.388539 724.447832 91.927304 724.789231 92.468120 725.130629 93.010945 725.472028 93.555740 725.813427 94.102461 726.154825 94.651070 726.496224 95.201524 726.837622 95.753784 727.179021 96.307808 727.520420 96.863554 727.861818 97.420983 728.203217 97.980053 728.544615 98.540724 728.886014 99.102953 729.227413 99.666701 729.568811 100.231927 729.910210 100.798589 730.251608 101.366647 730.593007 101.936060 730.934406 102.506786 731.275804 103.078785 731.617203 103.652017 731.958601 104.226439 732.300000 104.802011 732.641399 105.378692 732.982797 105.956441 733.324196 106.535218 733.665594 107.114981 734.006993 107.695689 734.348392 108.277302 734.689790 108.859778 735.031189 109.443077 735.372587 110.027157 735.713986 110.611978 736.055385 111.197499 736.396783 111.783679 736.738182 112.370476 737.079580 112.957851 737.420979 113.545762 737.762378 114.134167 738.103776 114.723027 738.445175 115.312300 738.786573 115.901946 739.127972 116.491922 739.469371 117.082189 739.810769 117.672706 740.152168 118.263431 740.493566 118.854324 740.834965 119.445344 741.176364 120.036449 741.517762 120.627599 741.859161 121.218753 742.200559 121.809870 742.541958 122.400909 742.883357 122.991829 743.224755 123.582590 743.566154 124.173149 743.907552 124.763467 744.248951 125.353502 744.590350 125.943213 744.931748 126.532561 745.273147 127.121502 745.614545 127.709997 745.955944 128.298005 746.297343 128.885485 746.638741 129.472395 746.980140 130.058696 747.321538 130.644345 747.662937 131.229303 748.004336 131.813527 748.345734 132.396978 748.687133 132.979613 749.028531 133.561394 749.369930 134.142277 749.711329 134.722223 750.052727 135.301190 750.394126 135.879138 750.735524 136.456026 751.076923 137.031812 751.418322 137.606456 751.759720 138.179917 752.101119 138.752154 752.442517 139.323125 752.783916 139.892791 753.125315 140.461110 753.466713 141.028040 753.808112 141.593543 754.149510 142.157575 754.490909 142.720097 754.832308 143.281067 755.173706 143.840444 755.515105 144.398189 755.856503 144.954258 756.197902 145.508613 756.539301 146.061211 756.880699 146.612012 757.222098 147.160975 757.563497 147.708059 757.904895 148.253223 758.246294 148.796426 758.587692 149.337627 758.929091 149.876785 759.270490 150.413860 759.611888 150.948810 759.953287 151.481594 760.294685 152.012172 760.636084 152.540503 760.977483 153.066545 761.318881 153.590257 761.660280 154.111600 762.001678 154.630531 762.343077 155.147010 762.684476 155.660996 763.025874 156.172448 763.367273 156.681325 763.708671 157.187587 764.050070 157.691191 764.391469 158.192098 764.732867 158.690266 765.074266 159.185654 765.415664 159.678222 765.757063 160.167929 766.098462 160.654733 766.439860 161.138594 766.781259 161.619470 767.122657 162.097322 767.464056 162.572107 767.805455 163.043785 768.146853 163.512315 768.488252 163.977656 768.829650 164.439768 769.171049 164.898608 769.512448 165.354137 769.853846 165.806313 770.195245 166.255096 770.536643 166.700444 770.878042 167.142317 771.219441 167.580673 771.560839 168.015472 771.902238 168.446672 772.243636 168.874234 772.585035 169.298115 772.926434 169.718275 773.267832 170.134673 773.609231 170.547269 773.950629 170.956020 774.292028 171.360887 774.633427 171.761828 774.974825 172.158802 775.316224 172.551768 775.657622 172.940686 775.999021 173.325515 776.340420 173.706213 776.681818 174.082740 777.023217 174.455055 777.364615 174.823116 777.706014 175.186883 778.047413 175.546315 778.388811 175.901372 778.730210 176.252011 779.071608 176.598192 779.413007 176.939875 779.754406 177.277018 780.095804 177.609580 780.437203 177.937520 780.778601 178.260798 781.120000 178.579373 781.461399 178.893203 781.802797 179.202248 782.144196 179.506466 782.485594 179.805818 782.826993 180.100261 783.168392 180.389755 783.509790 180.674259 783.851189 180.953732 784.192587 181.228134 784.533986 181.497422 784.875385 181.761557 785.216783 182.020497 785.558182 182.274201 785.899580 182.522629 786.240979 182.765740 786.582378 183.003492 786.923776 183.235844 787.265175 183.462767 787.606573 183.684271 787.947972 183.900378 788.289371 184.111108 788.630769 184.316484 788.972168 184.516528 789.313566 184.711259 789.654965 184.900701 789.996364 185.084874 790.337762 185.263799 790.679161 185.437499 791.020559 185.605995 791.361958 185.769308 791.703357 185.927459 792.044755 186.080470 792.386154 186.228363 792.727552 186.371159 793.068951 186.508879 793.410350 186.641546 793.751748 186.769179 794.093147 186.891801 794.434545 187.009434 794.775944 187.122098 795.117343 187.229815 795.458741 187.332607 795.800140 187.430495 796.141538 187.523500 796.482937 187.611645 796.824336 187.694949 797.165734 187.773436 797.507133 187.847126 797.848531 187.916040 798.189930 187.980201 798.531329 188.039630 798.872727 188.094347 799.214126 188.144375 799.555524 188.189735 799.896923 188.230449 800.238322 188.266537 800.579720 188.298022 800.921119 188.324925 801.262517 188.347267 801.603916 188.365070 801.945315 188.378354 802.286713 188.387143 802.628112 188.391456 802.969510 188.391317 803.310909 188.386745 803.652308 188.377762 803.993706 188.364391 804.335105 188.346651 804.676503 188.324566 805.017902 188.298156 805.359301 188.267442 805.700699 188.232447 806.042098 188.193191 806.383497 188.149696 806.724895 188.101984 807.066294 188.050076 807.407692 187.993993 807.749091 187.933757 808.090490 187.869390 808.431888 187.800912 808.773287 187.728345 809.114685 187.651712 809.456084 187.571032 809.797483 187.486328 810.138881 187.397620 810.480280 187.304932 810.821678 187.208283 811.163077 187.107696 811.504476 187.003191 811.845874 186.894791 812.187273 186.782516 812.528671 186.666389 812.870070 186.546431 813.211469 186.422662 813.552867 186.295105 813.894266 186.163781 814.235664 186.028712 814.577063 185.889918 814.918462 185.747422 815.259860 185.601245 815.601259 185.451408 815.942657 185.297932 816.284056 185.140840 816.625455 184.980153 816.966853 184.815891 817.308252 184.648077 817.649650 184.476732 817.991049 184.301878 818.332448 184.123535 818.673846 183.941726 819.015245 183.756472 819.356643 183.567793 819.698042 183.375713 820.039441 183.180252 820.380839 182.981431 820.722238 182.779272 821.063636 182.573797 821.405035 182.365027 821.746434 182.152983 822.087832 181.937687 822.429231 181.719161 822.770629 181.497425 823.112028 181.272501 823.453427 181.044411 823.794825 180.813177 824.136224 180.578818 824.477622 180.341358 824.819021 180.100818 825.160420 179.857218 825.501818 179.610581 825.843217 179.360927 826.184615 179.108279 826.526014 178.852658 826.867413 178.594084 827.208811 178.332581 827.550210 178.068168 827.891608 177.800869 828.233007 177.530703 828.574406 177.257692 828.915804 176.981859 829.257203 176.703224 829.598601 176.421808 829.940000 176.137634 830.281399 175.850723 830.622797 175.561096 830.964196 175.268775 831.305594 174.973780 831.646993 174.676134 831.988392 174.375858 832.329790 174.072974 832.671189 173.767503 833.012587 173.459465 833.353986 173.148884 833.695385 172.835780 834.036783 172.520174 834.378182 172.202089 834.719580 171.881546 835.060979 171.558565 835.402378 171.233169 835.743776 170.905379 836.085175 170.575216 836.426573 170.242702 836.767972 169.907859 837.109371 169.570707 837.450769 169.231269 837.792168 168.889565 838.133566 168.545617 838.474965 168.199447 838.816364 167.851076 839.157762 167.500526 839.499161 167.147817 839.840559 166.792972 840.181958 166.436012 840.523357 166.076958 840.864755 165.715831 841.206154 165.352654 841.547552 164.987448 841.888951 164.620234 842.230350 164.251033 842.571748 163.879867 842.913147 163.506758 843.254545 163.131726 843.595944 162.754795 843.937343 162.375983 844.278741 161.995315 844.620140 161.612809 844.961538 161.228489 845.302937 160.842376 845.644336 160.454491 845.985734 160.064855 846.327133 159.673491 846.668531 159.280418 847.009930 158.885660 847.351329 158.489237 847.692727 158.091171 848.034126 157.691483 848.375524 157.290195 848.716923 156.887328 849.058322 156.482903 849.399720 156.076943 849.741119 155.669468 850.082517 155.260500 850.423916 154.850060 850.765315 154.438171 851.106713 154.024853 851.448112 153.610127 851.789510 153.194016 852.130909 152.776540 852.472308 152.357722 852.813706 151.937582 853.155105 151.516142 853.496503 151.093424 853.837902 150.669448 854.179301 150.244237 854.520699 149.817812 854.862098 149.390194 855.203497 148.961405 855.544895 148.531466 855.886294 148.100399 856.227692 147.668225 856.569091 147.234966 856.910490 146.800642 857.251888 146.365276 857.593287 145.928889 857.934685 145.491502 858.276084 145.053137 858.617483 144.613816 858.958881 144.173559 859.300280 143.732388 859.641678 143.290325 859.983077 142.847391 860.324476 142.403608 860.665874 141.958996 861.007273 141.513578 861.348671 141.067375 861.690070 140.620408 862.031469 140.172700 862.372867 139.724270 862.714266 139.275141 863.055664 138.825334 863.397063 138.374871 863.738462 137.923773 864.079860 137.472061 864.421259 137.019758 864.762657 136.566883 865.104056 136.113460 865.445455 135.659509 865.786853 135.205052 866.128252 134.750110 866.469650 134.294704 866.811049 133.838857 867.152448 133.382590 867.493846 132.925923 867.835245 132.468879 868.176643 132.011479 868.518042 131.553744 868.859441 131.095697 869.200839 130.637357 869.542238 130.178747 869.883636 129.719889 870.225035 129.260803 870.566434 128.801511 870.907832 128.342035 871.249231 127.882396 871.590629 127.422615 871.932028 126.962714 872.273427 126.502715 872.614825 126.042635 872.956224 125.582478 873.297622 125.122244 873.639021 124.661934 873.980420 124.201549 874.321818 123.741087 874.663217 123.280551 875.004615 122.819939 875.346014 122.359253 875.687413 121.898492 876.028811 121.437657 876.370210 120.976749 876.711608 120.515767 877.053007 120.054711 877.394406 119.593583 877.735804 119.132383 878.077203 118.671110 878.418601 118.209765 878.760000 117.748349 879.101399 117.286861 879.442797 116.825302 879.784196 116.363673 880.125594 115.901973 880.466993 115.440203 880.808392 114.978364 881.149790 114.516455 881.491189 114.054477 881.832587 113.592430 882.173986 113.130314 882.515385 112.668130 882.856783 112.205879 883.198182 111.743559 883.539580 111.281173 883.880979 110.818719 884.222378 110.356199 884.563776 109.893612 884.905175 109.430960 885.246573 108.968241 885.587972 108.505458 885.929371 108.042609 886.270769 107.579695 886.612168 107.116716 886.953566 106.653674 887.294965 106.190568 887.636364 105.727398 887.977762 105.264164 888.319161 104.800868 888.660559 104.337509 889.001958 103.874088 889.343357 103.410605 889.684755 102.947060 890.026154 102.483453 890.367552 102.019786 890.708951 101.556057 891.050350 101.092268 891.391748 100.628419 891.733147 100.164510 892.074545 99.700542 892.415944 99.236514 892.757343 98.772427 893.098741 98.308282 893.440140 97.844078 893.781538 97.379816 894.122937 96.915497 894.464336 96.451120 894.805734 95.986686 895.147133 95.522195 895.488531 95.057648 895.829930 94.593044 896.171329 94.128385 896.512727 93.663670 896.854126 93.198900 897.195524 92.734074 897.536923 92.269195 897.878322 91.804261 898.219720 91.339272 898.561119 90.874231 898.902517 90.409135 899.243916 89.943987 899.585315 89.478786 899.926713 89.013532 900.268112 88.548227 900.609510 88.082869 900.950909 87.617460 901.292308 87.152000 901.633706 86.686488 901.975105 86.220926 902.316503 85.755314 902.657902 85.289652 902.999301 84.823940 903.340699 84.358178 903.682098 83.892368 904.023497 83.426509 904.364895 82.960601 904.706294 82.494645 905.047692 82.028642 905.389091 81.562590 905.730490 81.096492 906.071888 80.630347 906.413287 80.164155 906.754685 79.697916 907.096084 79.231632 907.437483 78.765302 907.778881 78.298927 908.120280 77.832506 908.461678 77.366041 908.803077 76.899532 909.144476 76.432978 909.485874 75.966380 909.827273 75.499739 910.168671 75.033055 910.510070 74.566328 910.851469 74.099558 911.192867 73.632746 911.534266 73.165892 911.875664 72.698996 912.217063 72.232059 912.558462 71.765081 912.899860 71.298062 913.241259 70.831003 913.582657 70.363903 913.924056 69.896764 914.265455 69.429585 914.606853 68.962367 914.948252 68.495110 915.289650 68.027815 915.631049 67.560481 915.972448 67.093109 916.313846 66.625700 916.655245 66.158253 916.996643 65.690769 917.338042 65.223249 917.679441 64.755692 918.020839 64.288099 918.362238 63.820470 918.703636 63.352805 919.045035 62.885106 919.386434 62.417371 919.727832 61.949602 920.069231 61.481799 920.410629 61.013962 920.752028 60.546091 921.093427 60.078187 921.434825 59.610250 921.776224 59.142280 922.117622 58.674277 922.459021 58.206243 922.800420 57.738177 923.141818 57.270079 923.483217 56.801950 923.824615 56.333790 924.166014 55.865600 924.507413 55.397379 924.848811 54.929129 925.190210 54.460848 925.531608 53.992539 925.873007 53.524200 926.214406 53.055833 926.555804 52.587437 926.897203 52.119014 927.238601 51.650562 927.580000 51.182083 927.921399 50.713577 928.262797 50.245044 928.604196 49.776485 928.945594 49.307899 929.286993 48.839287 929.628392 48.370650 929.969790 47.901987 930.311189 47.433300 930.652587 46.964587 930.993986 46.495851 931.335385 46.027090 931.676783 45.558305 932.018182 45.089497 932.359580 44.620666 932.700979 44.151812 933.042378 43.682935 933.383776 43.214037 933.725175 42.745116 934.066573 42.276174 934.407972 41.807210 934.749371 41.338225 935.090769 40.869220 935.432168 40.400195 935.773566 39.931149 936.114965 39.462083 936.456364 38.992998 936.797762 38.523894 937.139161 38.054772 937.480559 37.585630 937.821958 37.116471 938.163357 36.647293 938.504755 36.178098 938.846154 35.708886 939.187552 35.239656 939.528951 34.770410 939.870350 34.301148 940.211748 33.831869 940.553147 33.362575 940.894545 32.893265 941.235944 32.423941 941.577343 31.954601 941.918741 31.485247 942.260140 31.015879 942.601538 30.546497 942.942937 30.077101 943.284336 29.607692 943.625734 29.138270 943.967133 28.668835 944.308531 28.199388 944.649930 27.729929 944.991329 27.260458 945.332727 26.790976 945.674126 26.321483 946.015524 25.851979 946.356923 25.382464 946.698322 24.912940 947.039720 24.443405 947.381119 23.973861 947.722517 23.504307 948.063916 23.034745 948.405315 22.565174 948.746713 22.095594 949.088112 21.626007 949.429510 21.156412 949.770909 20.686809 950.112308 20.217199 950.453706 19.747583 950.795105 19.277960 951.136503 18.808331 951.477902 18.338696 951.819301 17.869055 952.160699 17.399410 952.502098 16.929759 952.843497 16.460104 953.184895 15.990444 953.526294 15.520780 953.867692 15.051113 954.209091 14.581442 954.550490 14.111768 954.891888 13.642092 955.233287 13.172412 955.574685 12.702731 955.916084 12.233048 956.257483 11.763363 956.598881 11.293677 956.940280 10.823991 957.281678 10.354303 957.623077 9.884615 957.623077 507.875418" /></g></g><g class="titles"><text class="title plot_title" x="550.0" y="26">2018年各月上架额</text></g><g class="plot overlay" transform="translate(103, 46)"><g class="series serie-0 color-0"><g class="dots"><circle class="dot reactive tooltip-trigger" cx="18.776923076923076" cy="490.0149885783831" r="2.5" /><desc class="value">17</desc><desc class="x top">18.776923076923076</desc><desc class="y top">490.0149885783831</desc><desc class="x_label">2018-01</desc></g><g class="dots"><circle class="dot reactive tooltip-trigger" cx="104.12657342657343" cy="503.6729641834575" r="2.5" /><desc class="value">4</desc><desc class="x top">104.12657342657343</desc><desc class="y top">503.6729641834575</desc><desc class="x_label">2018-02</desc></g><g class="dots"><circle class="dot reactive tooltip-trigger" cx="189.47622377622378" cy="484.7619210379699" r="2.5" /><desc class="value">22</desc><desc class="x top">189.47622377622378</desc><desc class="y top">484.7619210379699</desc><desc class="x_label">2018-03</desc></g><g class="dots"><circle class="dot reactive tooltip-trigger" cx="274.8258741258741" cy="488.9643750703005" r="2.5" /><desc class="value">18</desc><desc class="x top">274.8258741258741</desc><desc class="y top">488.9643750703005</desc><desc class="x_label">2018-04</desc></g><g class="dots"><circle class="dot reactive tooltip-trigger" cx="360.17552447552447" cy="484.7619210379699" r="2.5" /><desc class="value">22</desc><desc class="x top">360.17552447552447</desc><desc class="y top">484.7619210379699</desc><desc class="x_label">2018-05</desc></g><g class="dots"><circle class="dot reactive tooltip-trigger" cx="445.5251748251748" cy="471.10394543289556" r="2.5" /><desc class="value">35</desc><desc class="x top">445.5251748251748</desc><desc class="y top">471.10394543289556</desc><desc class="x_label">2018-06</desc></g><g class="dots"><circle class="dot reactive tooltip-trigger" cx="530.8748251748251" cy="405.9659079317717" r="2.5" /><desc class="value">97</desc><desc class="x left top">530.8748251748251</desc><desc class="y left top">405.9659079317717</desc><desc class="x_label">2018-07</desc></g><g class="dots"><circle class="dot reactive tooltip-trigger" cx="616.2244755244756" cy="137.00884986261514" r="2.5" /><desc class="value">353</desc><desc class="x left">616.2244755244756</desc><desc class="y left">137.00884986261514</desc><desc class="x_label">2018-08</desc></g><g class="dots"><circle class="dot reactive tooltip-trigger" cx="701.5741258741259" cy="62.415290788747484" r="2.5" /><desc class="value">424</desc><desc class="x left">701.5741258741259</desc><desc class="y left">62.415290788747484</desc><desc class="x_label">2018-09</desc></g><g class="dots"><circle class="dot reactive tooltip-trigger" cx="786.9237762237763" cy="183.23584421825143" r="2.5" /><desc class="value">309</desc><desc class="x left">786.9237762237763</desc><desc class="y left">183.23584421825143</desc><desc class="x_label">2018-10</desc></g><g class="dots"><circle class="dot reactive tooltip-trigger" cx="872.2734265734266" cy="126.50271478178871" r="2.5" /><desc class="value">363</desc><desc class="x left">872.2734265734266</desc><desc class="y left">126.50271478178871</desc><desc class="x_label">2018-11</desc></g><g class="dots"><circle class="dot reactive tooltip-trigger" cx="957.6230769230768" cy="9.884615384615358" r="2.5" /><desc class="value">474</desc><desc class="x left">957.6230769230768</desc><desc class="y left">9.884615384615358</desc><desc class="x_label">2018-12</desc></g></g></g><g class="plot text-overlay" transform="translate(103, 46)"><g class="series serie-0 color-0" /></g><g class="plot tooltip-overlay" transform="translate(103, 46)"><g class="tooltip" style="opacity: 0" transform="translate(0 0)"><rect class="tooltip-box" height="0" rx="0" ry="0" width="0" /><g class="text" /></g></g><g class="legends" transform="translate(10, 56)"><g class="legend reactive activate-serie" id="activate-serie-0"><rect class="color-0 reactive" height="12" width="12" x="0.0" y="1.0" /><text x="17.0" y="11.2">2018</text></g></g><g class="legends" transform="translate(1090, 56)" /></g></svg>