<?xml version='1.0' encoding='utf-8'?>
<svg xmlns:xlink="http://www.w3.org/1999/xlink" class="pygal-chart" id="chart-7da21aac-daa6-405a-88a1-4a6648a759a9" viewBox="0 0 1100 600" xmlns="http://www.w3.org/2000/svg"><!--Generated with pygal 2.4.0 (etree) ©Kozea 2012-2016 on 2019-07-27--><!--http://pygal.org--><!--http://github.com/Kozea/pygal--><defs><style type="text/css">#chart-7da21aac-daa6-405a-88a1-4a6648a759a9{-webkit-user-select:none;-webkit-font-smoothing:antialiased;font-family:Consolas,"Liberation Mono",Menlo,Courier,monospace}#chart-7da21aac-daa6-405a-88a1-4a6648a759a9 .title{font-family:Consolas,"Liberation Mono",Menlo,Courier,monospace;font-size:16px}#chart-7da21aac-daa6-405a-88a1-4a6648a759a9 .legends .legend text{font-family:Consolas,"Liberation Mono",Menlo,Courier,monospace;font-size:14px}#chart-7da21aac-daa6-405a-88a1-4a6648a759a9 .axis text{font-family:Consolas,"Liberation Mono",Menlo,Courier,monospace;font-size:10px}#chart-7da21aac-daa6-405a-88a1-4a6648a759a9 .axis text.major{font-family:Consolas,"Liberation Mono",Menlo,Courier,monospace;font-size:10px}#chart-7da21aac-daa6-405a-88a1-4a6648a759a9 .text-overlay text.value{font-family:Consolas,"Liberation Mono",Menlo,Courier,monospace;font-size:16px}#chart-7da21aac-daa6-405a-88a1-4a6648a759a9 .text-overlay text.label{font-family:Consolas,"Liberation Mono",Menlo,Courier,monospace;font-size:10px}#chart-7da21aac-daa6-405a-88a1-4a6648a759a9 .tooltip{font-family:Consolas,"Liberation Mono",Menlo,Courier,monospace;font-size:14px}#chart-7da21aac-daa6-405a-88a1-4a6648a759a9 text.no_data{font-family:Consolas,"Liberation Mono",Menlo,Courier,monospace;font-size:64px}
#chart-7da21aac-daa6-405a-88a1-4a6648a759a9{background-color:rgba(249,249,249,1)}#chart-7da21aac-daa6-405a-88a1-4a6648a759a9 path,#chart-7da21aac-daa6-405a-88a1-4a6648a759a9 line,#chart-7da21aac-daa6-405a-88a1-4a6648a759a9 rect,#chart-7da21aac-daa6-405a-88a1-4a6648a759a9 circle{-webkit-transition:150ms;-moz-transition:150ms;transition:150ms}#chart-7da21aac-daa6-405a-88a1-4a6648a759a9 .graph &gt; .background{fill:rgba(249,249,249,1)}#chart-7da21aac-daa6-405a-88a1-4a6648a759a9 .plot &gt; .background{fill:rgba(255,255,255,1)}#chart-7da21aac-daa6-405a-88a1-4a6648a759a9 .graph{fill:rgba(0,0,0,.87)}#chart-7da21aac-daa6-405a-88a1-4a6648a759a9 text.no_data{fill:rgba(0,0,0,1)}#chart-7da21aac-daa6-405a-88a1-4a6648a759a9 .title{fill:rgba(0,0,0,1)}#chart-7da21aac-daa6-405a-88a1-4a6648a759a9 .legends .legend text{fill:rgba(0,0,0,.87)}#chart-7da21aac-daa6-405a-88a1-4a6648a759a9 .legends .legend:hover text{fill:rgba(0,0,0,1)}#chart-7da21aac-daa6-405a-88a1-4a6648a759a9 .axis .line{stroke:rgba(0,0,0,1)}#chart-7da21aac-daa6-405a-88a1-4a6648a759a9 .axis .guide.line{stroke:rgba(0,0,0,.54)}#chart-7da21aac-daa6-405a-88a1-4a6648a759a9 .axis .major.line{stroke:rgba(0,0,0,.87)}#chart-7da21aac-daa6-405a-88a1-4a6648a759a9 .axis text.major{fill:rgba(0,0,0,1)}#chart-7da21aac-daa6-405a-88a1-4a6648a759a9 .axis.y .guides:hover .guide.line,#chart-7da21aac-daa6-405a-88a1-4a6648a759a9 .line-graph .axis.x .guides:hover .guide.line,#chart-7da21aac-daa6-405a-88a1-4a6648a759a9 .stackedline-graph .axis.x .guides:hover .guide.line,#chart-7da21aac-daa6-405a-88a1-4a6648a759a9 .xy-graph .axis.x .guides:hover .guide.line{stroke:rgba(0,0,0,1)}#chart-7da21aac-daa6-405a-88a1-4a6648a759a9 .axis .guides:hover text{fill:rgba(0,0,0,1)}#chart-7da21aac-daa6-405a-88a1-4a6648a759a9 .reactive{fill-opacity:.7;stroke-opacity:.8}#chart-7da21aac-daa6-405a-88a1-4a6648a759a9 .ci{stroke:rgba(0,0,0,.87)}#chart-7da21aac-daa6-405a-88a1-4a6648a759a9 .reactive.active,#chart-7da21aac-daa6-405a-88a1-4a6648a759a9 .active .reactive{fill-opacity:.8;stroke-opacity:.9;stroke-width:4}#chart-7da21aac-daa6-405a-88a1-4a6648a759a9 .ci .reactive.active{stroke-width:1.5}#chart-7da21aac-daa6-405a-88a1-4a6648a759a9 .series text{fill:rgba(0,0,0,1)}#chart-7da21aac-daa6-405a-88a1-4a6648a759a9 .tooltip rect{fill:rgba(255,255,255,1);stroke:rgba(0,0,0,1);-webkit-transition:opacity 150ms;-moz-transition:opacity 150ms;transition:opacity 150ms}#chart-7da21aac-daa6-405a-88a1-4a6648a759a9 .tooltip .label{fill:rgba(0,0,0,.87)}#chart-7da21aac-daa6-405a-88a1-4a6648a759a9 .tooltip .label{fill:rgba(0,0,0,.87)}#chart-7da21aac-daa6-405a-88a1-4a6648a759a9 .tooltip .legend{font-size:.8em;fill:rgba(0,0,0,.54)}#chart-7da21aac-daa6-405a-88a1-4a6648a759a9 .tooltip .x_label{font-size:.6em;fill:rgba(0,0,0,1)}#chart-7da21aac-daa6-405a-88a1-4a6648a759a9 .tooltip .xlink{font-size:.5em;text-decoration:underline}#chart-7da21aac-daa6-405a-88a1-4a6648a759a9 .tooltip .value{font-size:1.5em}#chart-7da21aac-daa6-405a-88a1-4a6648a759a9 .bound{font-size:.5em}#chart-7da21aac-daa6-405a-88a1-4a6648a759a9 .max-value{font-size:.75em;fill:rgba(0,0,0,.54)}#chart-7da21aac-daa6-405a-88a1-4a6648a759a9 .map-element{fill:rgba(255,255,255,1);stroke:rgba(0,0,0,.54) !important}#chart-7da21aac-daa6-405a-88a1-4a6648a759a9 .map-element .reactive{fill-opacity:inherit;stroke-opacity:inherit}#chart-7da21aac-daa6-405a-88a1-4a6648a759a9 .color-0,#chart-7da21aac-daa6-405a-88a1-4a6648a759a9 .color-0 a:visited{stroke:#F44336;fill:#F44336}#chart-7da21aac-daa6-405a-88a1-4a6648a759a9 .text-overlay .color-0 text{fill:black}
#chart-7da21aac-daa6-405a-88a1-4a6648a759a9 text.no_data{text-anchor:middle}#chart-7da21aac-daa6-405a-88a1-4a6648a759a9 .guide.line{fill:none}#chart-7da21aac-daa6-405a-88a1-4a6648a759a9 .centered{text-anchor:middle}#chart-7da21aac-daa6-405a-88a1-4a6648a759a9 .title{text-anchor:middle}#chart-7da21aac-daa6-405a-88a1-4a6648a759a9 .legends .legend text{fill-opacity:1}#chart-7da21aac-daa6-405a-88a1-4a6648a759a9 .axis.x text{text-anchor:middle}#chart-7da21aac-daa6-405a-88a1-4a6648a759a9 .axis.x:not(.web) text[transform]{text-anchor:start}#chart-7da21aac-daa6-405a-88a1-4a6648a759a9 .axis.x:not(.web) text[transform].backwards{text-anchor:end}#chart-7da21aac-daa6-405a-88a1-4a6648a759a9 .axis.y text{text-anchor:end}#chart-7da21aac-daa6-405a-88a1-4a6648a759a9 .axis.y text[transform].backwards{text-anchor:start}#chart-7da21aac-daa6-405a-88a1-4a6648a759a9 .axis.y2 text{text-anchor:start}#chart-7da21aac-daa6-405a-88a1-4a6648a759a9 .axis.y2 text[transform].backwards{text-anchor:end}#chart-7da21aac-daa6-405a-88a1-4a6648a759a9 .axis .guide.line{stroke-dasharray:4,4}#chart-7da21aac-daa6-405a-88a1-4a6648a759a9 .axis .major.guide.line{stroke-dasharray:6,6}#chart-7da21aac-daa6-405a-88a1-4a6648a759a9 .horizontal .axis.y .guide.line,#chart-7da21aac-daa6-405a-88a1-4a6648a759a9 .horizontal .axis.y2 .guide.line,#chart-7da21aac-daa6-405a-88a1-4a6648a759a9 .vertical .axis.x .guide.line{opacity:0}#chart-7da21aac-daa6-405a-88a1-4a6648a759a9 .horizontal .axis.always_show .guide.line,#chart-7da21aac-daa6-405a-88a1-4a6648a759a9 .vertical .axis.always_show .guide.line{opacity:1 !important}#chart-7da21aac-daa6-405a-88a1-4a6648a759a9 .axis.y .guides:hover .guide.line,#chart-7da21aac-daa6-405a-88a1-4a6648a759a9 .axis.y2 .guides:hover .guide.line,#chart-7da21aac-daa6-405a-88a1-4a6648a759a9 .axis.x .guides:hover .guide.line{opacity:1}#chart-7da21aac-daa6-405a-88a1-4a6648a759a9 .axis .guides:hover text{opacity:1}#chart-7da21aac-daa6-405a-88a1-4a6648a759a9 .nofill{fill:none}#chart-7da21aac-daa6-405a-88a1-4a6648a759a9 .subtle-fill{fill-opacity:.2}#chart-7da21aac-daa6-405a-88a1-4a6648a759a9 .dot{stroke-width:1px;fill-opacity:1}#chart-7da21aac-daa6-405a-88a1-4a6648a759a9 .dot.active{stroke-width:5px}#chart-7da21aac-daa6-405a-88a1-4a6648a759a9 .dot.negative{fill:transparent}#chart-7da21aac-daa6-405a-88a1-4a6648a759a9 text,#chart-7da21aac-daa6-405a-88a1-4a6648a759a9 tspan{stroke:none !important}#chart-7da21aac-daa6-405a-88a1-4a6648a759a9 .series text.active{opacity:1}#chart-7da21aac-daa6-405a-88a1-4a6648a759a9 .tooltip rect{fill-opacity:.95;stroke-width:.5}#chart-7da21aac-daa6-405a-88a1-4a6648a759a9 .tooltip text{fill-opacity:1}#chart-7da21aac-daa6-405a-88a1-4a6648a759a9 .showable{visibility:hidden}#chart-7da21aac-daa6-405a-88a1-4a6648a759a9 .showable.shown{visibility:visible}#chart-7da21aac-daa6-405a-88a1-4a6648a759a9 .gauge-background{fill:rgba(229,229,229,1);stroke:none}#chart-7da21aac-daa6-405a-88a1-4a6648a759a9 .bg-lines{stroke:rgba(249,249,249,1);stroke-width:2px}</style><script type="text/javascript">window.pygal = window.pygal || {};window.pygal.config = window.pygal.config || {};window.pygal.config['7da21aac-daa6-405a-88a1-4a6648a759a9'] = {"allow_interruptions": false, "box_mode": "extremes", "classes": ["pygal-chart"], "css": ["file://style.css", "file://graph.css"], "defs": [], "disable_xml_declaration": false, "dots_size": 2.5, "dynamic_print_values": false, "explicit_size": false, "fill": true, "force_uri_protocol": "https", "formatter": null, "half_pie": false, "height": 600, "include_x_axis": false, "inner_radius": 0, "interpolate": "cubic", "interpolation_parameters": {}, "interpolation_precision": 250, "inverse_y_axis": false, "js": ["//kozea.github.io/pygal.js/2.0.x/pygal-tooltips.min.js"], "legend_at_bottom": false, "legend_at_bottom_columns": null, "legend_box_size": 12, "logarithmic": false, "margin": 20, "margin_bottom": null, "margin_left": null, "margin_right": null, "margin_top": null, "max_scale": 16, "min_scale": 4, "missing_value_fill_truncation": "x", "no_data_text": "No data", "no_prefix": false, "order_min": null, "pretty_print": false, "print_labels": false, "print_values": false, "print_values_position": "center", "print_zeroes": true, "range": null, "rounded_bars": null, "secondary_range": null, "show_dots": true, "show_legend": true, "show_minor_x_labels": true, "show_minor_y_labels": true, "show_only_major_dots": false, "show_x_guides": false, "show_x_labels": true, "show_y_guides": true, "show_y_labels": true, "spacing": 10, "stack_from_top": false, "strict": false, "stroke": true, "stroke_style": null, "style": {"background": "rgba(249, 249, 249, 1)", "ci_colors": [], "colors": ["#F44336", "#3F51B5", "#009688", "#FFC107", "#FF5722", "#9C27B0", "#03A9F4", "#8BC34A", "#FF9800", "#E91E63", "#2196F3", "#4CAF50", "#FFEB3B", "#673AB7", "#00BCD4", "#CDDC39", "#9E9E9E", "#607D8B"], "font_family": "Consolas, \"Liberation Mono\", Menlo, Courier, monospace", "foreground": "rgba(0, 0, 0, .87)", "foreground_strong": "rgba(0, 0, 0, 1)", "foreground_subtle": "rgba(0, 0, 0, .54)", "guide_stroke_dasharray": "4,4", "label_font_family": "Consolas, \"Liberation Mono\", Menlo, Courier, monospace", "label_font_size": 10, "legend_font_family": "Consolas, \"Liberation Mono\", Menlo, Courier, monospace", "legend_font_size": 14, "major_guide_stroke_dasharray": "6,6", "major_label_font_family": "Consolas, \"Liberation Mono\", Menlo, Courier, monospace", "major_label_font_size": 10, "no_data_font_family": "Consolas, \"Liberation Mono\", Menlo, Courier, monospace", "no_data_font_size": 64, "opacity": ".7", "opacity_hover": ".8", "plot_background": "rgba(255, 255, 255, 1)", "stroke_opacity": ".8", "stroke_opacity_hover": ".9", "title_font_family": "Consolas, \"Liberation Mono\", Menlo, Courier, monospace", "title_font_size": 16, "tooltip_font_family": "Consolas, \"Liberation Mono\", Menlo, Courier, monospace", "tooltip_font_size": 14, "transition": "150ms", "value_background": "rgba(229, 229, 229, 1)", "value_colors": [], "value_font_family": "Consolas, \"Liberation Mono\", Menlo, Courier, monospace", "value_font_size": 16, "value_label_font_family": "Consolas, \"Liberation Mono\", Menlo, Courier, monospace", "value_label_font_size": 10}, "title": "2019\u5e74\u5404\u6708\u4e0a\u67b6\u989d", "tooltip_border_radius": 0, "tooltip_fancy_mode": true, "truncate_label": null, "truncate_legend": null, "width": 1100, "x_label_rotation": 0, "x_labels": ["2019-01", "2019-02", "2019-03", "2019-04", "2019-05"], "x_labels_major": null, "x_labels_major_count": null, "x_labels_major_every": null, "x_title": null, "xrange": null, "y_label_rotation": 0, "y_labels": null, "y_labels_major": null, "y_labels_major_count": null, "y_labels_major_every": null, "y_title": null, "zero": 0, "legends": ["2019"]}</script><script type="text/javascript" xlink:href="https://kozea.github.io/pygal.js/2.0.x/pygal-tooltips.min.js" /></defs><title>2019年各月上架额</title><g class="graph line-graph vertical"><rect class="background" height="600" width="1100" x="0" y="0" /><g class="plot" transform="translate(109, 46)"><rect class="background" height="514" width="970.4" x="0" y="0" /><g class="axis y always_show"><path class="line" d="M0.000000 514.000000 h970.400000" /><g class="guides"><path class="guide line" d="M0.000000 467.468292 h970.400000" /><text class="" x="-5" y="470.9682921078338">1000</text><title>1000</title></g><g class="guides"><path class="guide line" d="M0.000000 395.328346 h970.400000" /><text class="" x="-5" y="398.8283462268282">2000</text><title>2000</title></g><g class="guides"><path class="guide line" d="M0.000000 323.188400 h970.400000" /><text class="" x="-5" y="326.68840034582263">3000</text><title>3000</title></g><g class="guides"><path class="guide line" d="M0.000000 251.048454 h970.400000" /><text class="" x="-5" y="254.54845446481704">4000</text><title>4000</title></g><g class="guides"><path class="major guide line" d="M0.000000 178.908509 h970.400000" /><text class="major" x="-5" y="182.40850858381145">5000</text><title>5000</title></g><g class="guides"><path class="guide line" d="M0.000000 106.768563 h970.400000" /><text class="" x="-5" y="110.26856270280587">6000</text><title>6000</title></g><g class="guides"><path class="guide line" d="M0.000000 34.628617 h970.400000" /><text class="" x="-5" y="38.128616821800335">7000</text><title>7000</title></g></g><g class="axis x"><g class="guides"><path class="line" d="M18.661538 0.000000 v514.000000" /><text class="" x="18.661538461538463" y="529.0">2019-01</text></g><g class="guides"><path class="guide line" d="M251.930769 0.000000 v514.000000" /><text class="" x="251.93076923076927" y="529.0">2019-02</text></g><g class="guides"><path class="guide line" d="M485.200000 0.000000 v514.000000" /><text class="" x="485.2" y="529.0">2019-03</text></g><g class="guides"><path class="guide line" d="M718.469231 0.000000 v514.000000" /><text class="" x="718.4692307692308" y="529.0">2019-04</text></g><g class="guides"><path class="guide line" d="M951.738462 0.000000 v514.000000" /><text class="" x="951.7384615384615" y="529.0">2019-05</text></g></g><g class="series serie-0 color-0"><path class="line reactive" d="M18.661538 514.000000 L18.661538 504.115385 19.594615 504.095096 20.527692 504.074795 21.460769 504.054471 22.393846 504.034110 23.326923 504.013702 24.260000 503.993234 25.193077 503.972695 26.126154 503.952072 27.059231 503.931354 27.992308 503.910528 28.925385 503.889583 29.858462 503.868507 30.791538 503.847288 31.724615 503.825913 32.657692 503.804372 33.590769 503.782651 34.523846 503.760740 35.456923 503.738626 36.390000 503.716297 37.323077 503.693741 38.256154 503.670947 39.189231 503.647902 40.122308 503.624594 41.055385 503.601013 41.988462 503.577145 42.921538 503.552978 43.854615 503.528502 44.787692 503.503703 45.720769 503.478570 46.653846 503.453091 47.586923 503.427255 48.520000 503.401048 49.453077 503.374460 50.386154 503.347478 51.319231 503.320090 52.252308 503.292285 53.185385 503.264050 54.118462 503.235374 55.051538 503.206244 55.984615 503.176649 56.917692 503.146577 57.850769 503.116015 58.783846 503.084953 59.716923 503.053377 60.650000 503.021277 61.583077 502.988639 62.516154 502.955453 63.449231 502.921706 64.382308 502.887386 65.315385 502.852482 66.248462 502.816981 67.181538 502.780872 68.114615 502.744142 69.047692 502.706780 69.980769 502.668774 70.913846 502.630111 71.846923 502.590780 72.780000 502.550770 73.713077 502.510067 74.646154 502.468660 75.579231 502.426538 76.512308 502.383687 77.445385 502.340097 78.378462 502.295755 79.311538 502.250650 80.244615 502.204769 81.177692 502.158101 82.110769 502.110633 83.043846 502.062354 83.976923 502.013252 84.910000 501.963315 85.843077 501.912530 86.776154 501.860887 87.709231 501.808372 88.642308 501.754975 89.575385 501.700682 90.508462 501.645483 91.441538 501.589366 92.374615 501.532317 93.307692 501.474327 94.240769 501.415381 95.173846 501.355469 96.106923 501.294579 97.040000 501.232699 97.973077 501.169816 98.906154 501.105920 99.839231 501.040997 100.772308 500.975036 101.705385 500.908025 102.638462 500.839953 103.571538 500.770806 104.504615 500.700574 105.437692 500.629244 106.370769 500.556805 107.303846 500.483244 108.236923 500.408550 109.170000 500.332710 110.103077 500.255713 111.036154 500.177547 111.969231 500.098200 112.902308 500.017659 113.835385 499.935914 114.768462 499.852951 115.701538 499.768760 116.634615 499.683327 117.567692 499.596642 118.500769 499.508693 119.433846 499.419466 120.366923 499.328951 121.300000 499.237136 122.233077 499.144008 123.166154 499.049556 124.099231 498.953768 125.032308 498.856631 125.965385 498.758134 126.898462 498.658266 127.831538 498.557013 128.764615 498.454364 129.697692 498.350307 130.630769 498.244831 131.563846 498.137923 132.496923 498.029571 133.430000 497.919764 134.363077 497.808489 135.296154 497.695735 136.229231 497.581489 137.162308 497.465740 138.095385 497.348476 139.028462 497.229684 139.961538 497.109354 140.894615 496.987472 141.827692 496.864027 142.760769 496.739008 143.693846 496.612402 144.626923 496.484197 145.560000 496.354381 146.493077 496.222943 147.426154 496.089870 148.359231 495.955150 149.292308 495.818773 150.225385 495.680724 151.158462 495.540994 152.091538 495.399569 153.024615 495.256439 153.957692 495.111590 154.890769 494.965011 155.823846 494.816690 156.756923 494.666616 157.690000 494.514775 158.623077 494.361157 159.556154 494.205749 160.489231 494.048540 161.422308 493.889517 162.355385 493.728669 163.288462 493.565983 164.221538 493.401448 165.154615 493.235052 166.087692 493.066782 167.020769 492.896627 167.953846 492.724576 168.886923 492.550615 169.820000 492.374734 170.753077 492.196920 171.686154 492.017160 172.619231 491.835445 173.552308 491.651760 174.485385 491.466095 175.418462 491.278438 176.351538 491.088776 177.284615 490.897098 178.217692 490.703392 179.150769 490.507645 180.083846 490.309846 181.016923 490.109983 181.950000 489.908044 182.883077 489.704018 183.816154 489.497891 184.749231 489.289653 185.682308 489.079290 186.615385 488.866793 187.548462 488.652147 188.481538 488.435342 189.414615 488.216366 190.347692 487.995206 191.280769 487.771851 192.213846 487.546289 193.146923 487.318507 194.080000 487.088495 195.013077 486.856239 195.946154 486.621728 196.879231 486.384951 197.812308 486.145895 198.745385 485.904547 199.678462 485.660898 200.611538 485.414933 201.544615 485.166642 202.477692 484.916013 203.410769 484.663033 204.343846 484.407691 205.276923 484.149974 206.210000 483.889872 207.143077 483.627371 208.076154 483.362460 209.009231 483.095127 209.942308 482.825360 210.875385 482.553148 211.808462 482.278477 212.741538 482.001337 213.674615 481.721715 214.607692 481.439600 215.540769 481.154979 216.473846 480.867840 217.406923 480.578172 218.340000 480.285963 219.273077 479.991201 220.206154 479.693873 221.139231 479.393969 222.072308 479.091475 223.005385 478.786381 223.938462 478.478673 224.871538 478.168341 225.804615 477.855372 226.737692 477.539754 227.670769 477.221475 228.603846 476.900524 229.536923 476.576889 230.470000 476.250557 231.403077 475.921517 232.336154 475.589756 233.269231 475.255264 234.202308 474.918027 235.135385 474.578034 236.068462 474.235273 237.001538 473.889732 237.934615 473.541399 238.867692 473.190263 239.800769 472.836310 240.733846 472.479531 241.666923 472.119911 242.600000 471.757440 243.533077 471.392106 244.466154 471.023896 245.399231 470.652799 246.332308 470.278802 247.265385 469.901895 248.198462 469.522064 249.131538 469.139298 250.064615 468.753586 250.997692 468.364914 251.930769 467.973272 252.863846 467.578653 253.796923 467.181077 254.730000 466.780570 255.663077 466.377158 256.596154 465.970866 257.529231 465.561720 258.462308 465.149747 259.395385 464.734971 260.328462 464.317419 261.261538 463.897116 262.194615 463.474089 263.127692 463.048363 264.060769 462.619964 264.993846 462.188917 265.926923 461.755249 266.860000 461.318985 267.793077 460.880151 268.726154 460.438774 269.659231 459.994877 270.592308 459.548489 271.525385 459.099634 272.458462 458.648337 273.391538 458.194626 274.324615 457.738526 275.257692 457.280062 276.190769 456.819260 277.123846 456.356146 278.056923 455.890747 278.990000 455.423087 279.923077 454.953193 280.856154 454.481090 281.789231 454.006804 282.722308 453.530361 283.655385 453.051787 284.588462 452.571107 285.521538 452.088348 286.454615 451.603535 287.387692 451.116694 288.320769 450.627851 289.253846 450.137031 290.186923 449.644261 291.120000 449.149566 292.053077 448.652972 292.986154 448.154505 293.919231 447.654190 294.852308 447.152054 295.785385 446.648122 296.718462 446.142420 297.651538 445.634973 298.584615 445.125809 299.517692 444.614952 300.450769 444.102428 301.383846 443.588263 302.316923 443.072483 303.250000 442.555113 304.183077 442.036180 305.116154 441.515709 306.049231 440.993727 306.982308 440.470258 307.915385 439.945329 308.848462 439.418965 309.781538 438.891192 310.714615 438.362037 311.647692 437.831525 312.580769 437.299681 313.513846 436.766531 314.446923 436.232102 315.380000 435.696419 316.313077 435.159508 317.246154 434.621395 318.179231 434.082105 319.112308 433.541664 320.045385 433.000098 320.978462 432.457434 321.911538 431.913696 322.844615 431.368911 323.777692 430.823103 324.710769 430.276301 325.643846 429.728528 326.576923 429.179810 327.510000 428.630174 328.443077 428.079646 329.376154 427.528251 330.309231 426.976014 331.242308 426.422963 332.175385 425.869122 333.108462 425.314517 334.041538 424.759175 334.974615 424.203120 335.907692 423.646379 336.840769 423.088978 337.773846 422.530942 338.706923 421.972297 339.640000 421.413070 340.573077 420.853285 341.506154 420.292969 342.439231 419.732147 343.372308 419.170845 344.305385 418.609089 345.238462 418.046905 346.171538 417.484319 347.104615 416.921356 348.037692 416.358042 348.970769 415.794404 349.903846 415.230466 350.836923 414.666255 351.770000 414.101796 352.703077 413.537115 353.636154 412.972239 354.569231 412.407192 355.502308 411.842001 356.435385 411.276692 357.368462 410.711289 358.301538 410.145820 359.234615 409.580310 360.167692 409.014784 361.100769 408.449268 362.033846 407.883789 362.966923 407.318373 363.900000 406.753043 364.833077 406.187828 365.766154 405.622752 366.699231 405.057842 367.632308 404.493122 368.565385 403.928619 369.498462 403.364359 370.431538 402.800368 371.364615 402.236671 372.297692 401.673294 373.230769 401.110263 374.163846 400.547603 375.096923 399.985342 376.030000 399.423503 376.963077 398.862114 377.896154 398.301199 378.829231 397.740785 379.762308 397.180898 380.695385 396.621563 381.628462 396.062807 382.561538 395.504654 383.494615 394.947131 384.427692 394.390264 385.360769 393.834077 386.293846 393.278599 387.226923 392.723853 388.160000 392.169865 389.093077 391.616663 390.026154 391.064271 390.959231 390.512715 391.892308 389.962021 392.825385 389.412214 393.758462 388.863322 394.691538 388.315368 395.624615 387.768380 396.557692 387.222383 397.490769 386.677403 398.423846 386.133465 399.356923 385.590596 400.290000 385.048821 401.223077 384.508166 402.156154 383.968657 403.089231 383.430320 404.022308 382.893180 404.955385 382.357263 405.888462 381.822595 406.821538 381.289202 407.754615 380.757110 408.687692 380.226344 409.620769 379.696930 410.553846 379.168895 411.486923 378.642263 412.420000 378.117061 413.353077 377.593315 414.286154 377.071049 415.219231 376.550291 416.152308 376.031066 417.085385 375.513399 418.018462 374.997317 418.951538 374.482846 419.884615 373.970010 420.817692 373.458836 421.750769 372.949350 422.683846 372.441577 423.616923 371.935544 424.550000 371.431276 425.483077 370.928799 426.416154 370.428138 427.349231 369.929320 428.282308 369.432370 429.215385 368.937315 430.148462 368.444179 431.081538 367.952990 432.014615 367.463771 432.947692 366.976550 433.880769 366.491353 434.813846 366.008204 435.746923 365.527130 436.680000 365.048156 437.613077 364.571309 438.546154 364.096614 439.479231 363.624097 440.412308 363.153784 441.345385 362.685700 442.278462 362.219872 443.211538 361.756325 444.144615 361.295085 445.077692 360.836177 446.010769 360.379629 446.943846 359.925465 447.876923 359.473710 448.810000 359.024392 449.743077 358.577536 450.676154 358.133168 451.609231 357.691312 452.542308 357.251996 453.475385 356.815245 454.408462 356.381085 455.341538 355.949542 456.274615 355.520641 457.207692 355.094408 458.140769 354.670869 459.073846 354.250051 460.006923 353.831977 460.940000 353.416676 461.873077 353.004171 462.806154 352.594490 463.739231 352.187657 464.672308 351.783699 465.605385 351.382642 466.538462 350.984511 467.471538 350.589332 468.404615 350.197130 469.337692 349.807933 470.270769 349.421765 471.203846 349.038652 472.136923 348.658621 473.070000 348.281696 474.003077 347.907904 474.936154 347.537271 475.869231 347.169822 476.802308 346.805583 477.735385 346.444580 478.668462 346.086838 479.601538 345.732385 480.534615 345.381244 481.467692 345.033443 482.400769 344.689006 483.333846 344.347961 484.266923 344.010332 485.200000 343.676145 486.133077 343.345416 487.066154 343.018119 487.999231 342.694218 488.932308 342.373677 489.865385 342.056459 490.798462 341.742529 491.731538 341.431849 492.664615 341.124385 493.597692 340.820100 494.530769 340.518957 495.463846 340.220921 496.396923 339.925956 497.330000 339.634025 498.263077 339.345091 499.196154 339.059120 500.129231 338.776075 501.062308 338.495919 501.995385 338.218617 502.928462 337.944132 503.861538 337.672428 504.794615 337.403470 505.727692 337.137220 506.660769 336.873643 507.593846 336.612702 508.526923 336.354362 509.460000 336.098586 510.393077 335.845338 511.326154 335.594582 512.259231 335.346281 513.192308 335.100401 514.125385 334.856904 515.058462 334.615754 515.991538 334.376915 516.924615 334.140351 517.857692 333.906026 518.790769 333.673904 519.723846 333.443948 520.656923 333.216122 521.590000 332.990391 522.523077 332.766718 523.456154 332.545066 524.389231 332.325400 525.322308 332.107684 526.255385 331.891881 527.188462 331.677956 528.121538 331.465872 529.054615 331.255592 529.987692 331.047081 530.920769 330.840303 531.853846 330.635221 532.786923 330.431800 533.720000 330.230003 534.653077 330.029794 535.586154 329.831136 536.519231 329.633994 537.452308 329.438332 538.385385 329.244113 539.318462 329.051302 540.251538 328.859861 541.184615 328.669755 542.117692 328.480948 543.050769 328.293404 543.983846 328.107086 544.916923 327.921958 545.850000 327.737984 546.783077 327.555128 547.716154 327.373354 548.649231 327.192626 549.582308 327.012907 550.515385 326.834162 551.448462 326.656353 552.381538 326.479446 553.314615 326.303403 554.247692 326.128189 555.180769 325.953768 556.113846 325.780103 557.046923 325.607158 557.980000 325.434897 558.913077 325.263285 559.846154 325.092284 560.779231 324.921858 561.712308 324.751972 562.645385 324.582589 563.578462 324.413673 564.511538 324.245189 565.444615 324.077099 566.377692 323.909367 567.310769 323.741959 568.243846 323.574836 569.176923 323.407964 570.110000 323.241305 571.043077 323.074825 571.976154 322.908486 572.909231 322.742253 573.842308 322.576089 574.775385 322.409958 575.708462 322.243825 576.641538 322.077652 577.574615 321.911404 578.507692 321.745045 579.440769 321.578538 580.373846 321.411847 581.306923 321.244937 582.240000 321.077771 583.173077 320.910312 584.106154 320.742525 585.039231 320.574373 585.972308 320.405821 586.905385 320.236832 587.838462 320.067370 588.771538 319.897399 589.704615 319.726883 590.637692 319.555785 591.570769 319.384069 592.503846 319.211700 593.436923 319.038641 594.370000 318.864856 595.303077 318.690308 596.236154 318.514962 597.169231 318.338782 598.102308 318.161731 599.035385 317.983773 599.968462 317.804872 600.901538 317.624992 601.834615 317.444096 602.767692 317.262149 603.700769 317.079115 604.633846 316.894956 605.566923 316.709638 606.500000 316.523123 607.433077 316.335376 608.366154 316.146361 609.299231 315.956041 610.232308 315.764381 611.165385 315.571343 612.098462 315.376893 613.031538 315.180993 613.964615 314.983608 614.897692 314.784701 615.830769 314.584237 616.763846 314.382178 617.696923 314.178490 618.630000 313.973136 619.563077 313.766079 620.496154 313.557284 621.429231 313.346714 622.362308 313.134333 623.295385 312.920106 624.228462 312.703995 625.161538 312.485965 626.094615 312.265980 627.027692 312.044003 627.960769 311.819998 628.893846 311.593930 629.826923 311.365761 630.760000 311.135456 631.693077 310.902979 632.626154 310.668293 633.559231 310.431363 634.492308 310.192152 635.425385 309.950624 636.358462 309.706742 637.291538 309.460472 638.224615 309.211775 639.157692 308.960618 640.090769 308.706962 641.023846 308.450773 641.956923 308.192013 642.890000 307.930647 643.823077 307.666639 644.756154 307.399952 645.689231 307.130551 646.622308 306.858398 647.555385 306.583459 648.488462 306.305696 649.421538 306.025074 650.354615 305.741557 651.287692 305.455108 652.220769 305.165691 653.153846 304.873270 654.086923 304.577809 655.020000 304.279271 655.953077 303.977621 656.886154 303.672823 657.819231 303.364840 658.752308 303.053636 659.685385 302.739174 660.618462 302.421420 661.551538 302.100336 662.484615 301.775887 663.417692 301.448035 664.350769 301.116746 665.283846 300.781983 666.216923 300.443710 667.150000 300.101891 668.083077 299.756489 669.016154 299.407468 669.949231 299.054793 670.882308 298.698426 671.815385 298.338333 672.748462 297.974476 673.681538 297.606819 674.614615 297.235328 675.547692 296.859964 676.480769 296.480692 677.413846 296.097477 678.346923 295.710281 679.280000 295.319069 680.213077 294.923804 681.146154 294.524450 682.079231 294.120972 683.012308 293.713333 683.945385 293.301496 684.878462 292.885427 685.811538 292.465087 686.744615 292.040442 687.677692 291.611456 688.610769 291.178091 689.543846 290.740312 690.476923 290.298083 691.410000 289.851368 692.343077 289.400129 693.276154 288.944333 694.209231 288.483941 695.142308 288.018918 696.075385 287.549228 697.008462 287.074835 697.941538 286.595702 698.874615 286.111793 699.807692 285.623073 700.740769 285.129505 701.673846 284.631052 702.606923 284.127679 703.540000 283.619350 704.473077 283.106028 705.406154 282.587677 706.339231 282.064262 707.272308 281.535745 708.205385 281.002091 709.138462 280.463263 710.071538 279.919226 711.004615 279.369944 711.937692 278.815379 712.870769 278.255496 713.803846 277.690259 714.736923 277.119632 715.670000 276.543578 716.603077 275.962062 717.536154 275.375047 718.469231 274.782497 719.402308 274.184385 720.335385 273.580725 721.268462 272.971538 722.201538 272.356846 723.134615 271.736673 724.067692 271.111040 725.000769 270.479969 725.933846 269.843484 726.866923 269.201605 727.800000 268.554356 728.733077 267.901759 729.666154 267.243835 730.599231 266.580608 731.532308 265.912100 732.465385 265.238332 733.398462 264.559327 734.331538 263.875108 735.264615 263.185697 736.197692 262.491115 737.130769 261.791386 738.063846 261.086531 738.996923 260.376574 739.930000 259.661535 740.863077 258.941438 741.796154 258.216304 742.729231 257.486156 743.662308 256.751017 744.595385 256.010908 745.528462 255.265852 746.461538 254.515871 747.394615 253.760988 748.327692 253.001224 749.260769 252.236602 750.193846 251.467144 751.126923 250.692873 752.060000 249.913811 752.993077 249.129980 753.926154 248.341402 754.859231 247.548100 755.792308 246.750096 756.725385 245.947412 757.658462 245.140070 758.591538 244.328094 759.524615 243.511504 760.457692 242.690324 761.390769 241.864576 762.323846 241.034281 763.256923 240.199463 764.190000 239.360143 765.123077 238.516344 766.056154 237.668088 766.989231 236.815398 767.922308 235.958295 768.855385 235.096802 769.788462 234.230942 770.721538 233.360735 771.654615 232.486206 772.587692 231.607376 773.520769 230.724267 774.453846 229.836902 775.386923 228.945302 776.320000 228.049491 777.253077 227.149491 778.186154 226.245323 779.119231 225.337010 780.052308 224.424575 780.985385 223.508039 781.918462 222.587425 782.851538 221.662755 783.784615 220.734052 784.717692 219.801338 785.650769 218.864635 786.583846 217.923965 787.516923 216.979350 788.450000 216.030814 789.383077 215.078378 790.316154 214.122064 791.249231 213.161895 792.182308 212.197893 793.115385 211.230081 794.048462 210.258480 794.981538 209.283113 795.914615 208.304002 796.847692 207.321170 797.780769 206.334638 798.713846 205.344430 799.646923 204.350566 800.580000 203.353071 801.513077 202.351965 802.446154 201.347272 803.379231 200.339013 804.312308 199.327210 805.245385 198.311887 806.178462 197.293065 807.111538 196.270767 808.044615 195.245014 808.977692 194.215830 809.910769 193.183236 810.843846 192.147255 811.776923 191.107909 812.710000 190.065221 813.643077 189.019212 814.576154 187.969904 815.509231 186.917321 816.442308 185.861485 817.375385 184.802417 818.308462 183.740140 819.241538 182.674677 820.174615 181.606049 821.107692 180.534279 822.040769 179.459389 822.973846 178.381401 823.906923 177.300339 824.840000 176.216223 825.773077 175.129077 826.706154 174.038922 827.639231 172.945781 828.572308 171.849676 829.505385 170.750630 830.438462 169.648664 831.371538 168.543801 832.304615 167.436064 833.237692 166.325474 834.170769 165.212054 835.103846 164.095827 836.036923 162.976813 836.970000 161.855037 837.903077 160.730519 838.836154 159.603283 839.769231 158.473350 840.702308 157.340743 841.635385 156.205484 842.568462 155.067596 843.501538 153.927100 844.434615 152.784020 845.367692 151.638376 846.300769 150.490193 847.233846 149.339491 848.166923 148.186293 849.100000 147.030621 850.033077 145.872499 850.966154 144.711947 851.899231 143.548988 852.832308 142.383645 853.765385 141.215940 854.698462 140.045895 855.631538 138.873533 856.564615 137.698875 857.497692 136.521944 858.430769 135.342762 859.363846 134.161352 860.296923 132.977736 861.230000 131.791936 862.163077 130.603974 863.096154 129.413873 864.029231 128.221655 864.962308 127.027342 865.895385 125.830957 866.828462 124.632521 867.761538 123.432058 868.694615 122.229589 869.627692 121.025136 870.560769 119.818723 871.493846 118.610371 872.426923 117.400102 873.360000 116.187940 874.293077 114.973905 875.226154 113.758021 876.159231 112.540309 877.092308 111.320792 878.025385 110.099493 878.958462 108.876433 879.891538 107.651635 880.824615 106.425121 881.757692 105.196913 882.690769 103.967034 883.623846 102.735506 884.556923 101.502351 885.490000 100.267591 886.423077 99.031250 887.356154 97.793348 888.289231 96.553909 889.222308 95.312955 890.155385 94.070507 891.088462 92.826589 892.021538 91.581222 892.954615 90.334429 893.887692 89.086232 894.820769 87.836654 895.753846 86.585716 896.686923 85.333441 897.620000 84.079851 898.553077 82.824969 899.486154 81.568816 900.419231 80.311416 901.352308 79.052790 902.285385 77.792960 903.218462 76.531949 904.151538 75.269780 905.084615 74.006474 906.017692 72.742054 906.950769 71.476542 907.883846 70.209960 908.816923 68.942331 909.750000 67.673677 910.683077 66.404020 911.616154 65.133383 912.549231 63.861787 913.482308 62.589255 914.415385 61.315810 915.348462 60.041473 916.281538 58.766267 917.214615 57.490215 918.147692 56.213337 919.080769 54.935658 920.013846 53.657199 920.946923 52.377982 921.880000 51.098029 922.813077 49.817364 923.746154 48.536007 924.679231 47.253982 925.612308 45.971311 926.545385 44.688016 927.478462 43.404119 928.411538 42.119643 929.344615 40.834610 930.277692 39.549041 931.210769 38.262961 932.143846 36.976390 933.076923 35.689351 934.010000 34.401866 934.943077 33.113958 935.876154 31.825649 936.809231 30.536961 937.742308 29.247917 938.675385 27.958538 939.608462 26.668847 940.541538 25.378866 941.474615 24.088618 942.407692 22.798125 943.340769 21.507410 944.273846 20.216493 945.206923 18.925398 946.140000 17.634148 947.073077 16.342763 948.006154 15.051267 948.939231 13.759682 949.872308 12.468030 950.805385 11.176334 951.738462 9.884615 951.738462 514.000000" /></g></g><g class="titles"><text class="title plot_title" x="550.0" y="26">2019年各月上架额</text></g><g class="plot overlay" transform="translate(109, 46)"><g class="series serie-0 color-0"><g class="dots"><circle class="dot reactive tooltip-trigger" cx="18.661538461538463" cy="504.11538461538464" r="2.5" /><desc class="value">492</desc><desc class="x top">18.661538461538463</desc><desc class="y top">504.11538461538464</desc><desc class="x_label">2019-01</desc></g><g class="dots"><circle class="dot reactive tooltip-trigger" cx="251.93076923076927" cy="467.9732717290008" r="2.5" /><desc class="value">993</desc><desc class="x top">251.93076923076927</desc><desc class="y top">467.9732717290008</desc><desc class="x_label">2019-02</desc></g><g class="dots"><circle class="dot reactive tooltip-trigger" cx="485.2" cy="343.67614497602824" r="2.5" /><desc class="value">2716</desc><desc class="x top">485.2</desc><desc class="y top">343.67614497602824</desc><desc class="x_label">2019-03</desc></g><g class="dots"><circle class="dot reactive tooltip-trigger" cx="718.4692307692308" cy="274.7824966596679" r="2.5" /><desc class="value">3671</desc><desc class="x left top">718.4692307692308</desc><desc class="y left top">274.7824966596679</desc><desc class="x_label">2019-04</desc></g><g class="dots"><circle class="dot reactive tooltip-trigger" cx="951.7384615384615" cy="9.884615384615415" r="2.5" /><desc class="value">7343</desc><desc class="x left">951.7384615384615</desc><desc class="y left">9.884615384615415</desc><desc class="x_label">2019-05</desc></g></g></g><g class="plot text-overlay" transform="translate(109, 46)"><g class="series serie-0 color-0" /></g><g class="plot tooltip-overlay" transform="translate(109, 46)"><g class="tooltip" style="opacity: 0" transform="translate(0 0)"><rect class="tooltip-box" height="0" rx="0" ry="0" width="0" /><g class="text" /></g></g><g class="legends" transform="translate(10, 56)"><g class="legend reactive activate-serie" id="activate-serie-0"><rect class="color-0 reactive" height="12" width="12" x="0.0" y="1.0" /><text x="17.0" y="11.2">2019</text></g></g><g class="legends" transform="translate(1090, 56)" /></g></svg>